<svg width="46" height="37" viewBox="0 0 46 37" fill="none" xmlns="http://www.w3.org/2000/svg">
<path fill-rule="evenodd" clip-rule="evenodd" d="M8.4118 15.925C14.3129 12.8624 18.2574 10.883 20.2139 9.91191C25.831 7.14813 26.9986 6.6626 27.756 6.6626C27.9137 6.6626 28.2924 6.69995 28.5449 6.92404C28.7342 7.11078 28.7973 7.37222 28.8289 7.55896C28.8604 7.7457 28.892 8.15653 28.8604 8.49267C28.5449 12.2649 27.2511 21.4899 26.5568 25.7103C26.2728 27.503 25.7048 28.1006 25.1683 28.1753C24.0007 28.2873 23.0856 27.2416 21.9496 26.3825C20.1824 25.0006 19.1726 24.1416 17.437 22.7971C15.4489 21.2285 16.7427 20.3694 17.8788 18.9876C18.1628 18.6141 23.3696 13.0492 23.4643 12.5263C23.4643 12.4516 23.4958 12.2275 23.3696 12.1155C23.2434 12.0034 23.0856 12.0408 22.9594 12.0781C22.77 12.1155 19.9299 14.3564 14.4075 18.7635C13.5871 19.4357 12.8613 19.7345 12.1986 19.7345C11.4728 19.7345 10.0843 19.249 9.04293 18.8382C7.78067 18.3526 6.77086 18.0912 6.86553 17.2695C6.9602 16.8214 7.4651 16.3732 8.4118 15.925Z" fill="#FDFDFD"/>
<line x1="45" y1="6.97266" x2="45" y2="29.6333" stroke="#918DA4"/>
</svg>
