<svg width="32" height="32" viewBox="0 0 32 32" fill="none" xmlns="http://www.w3.org/2000/svg">
<rect x="0.5" y="0.5" width="31" height="31" fill="#130E1F"/>
<rect x="0.5" y="0.5" width="31" height="31" stroke="#6C3BEF"/>
<path d="M16 27.2501C15.94 27.2501 15.8725 27.2351 15.82 27.2051L14.32 26.3726C14.2 26.3051 14.125 26.1776 14.125 26.0426V24.2051C14.125 24.0701 14.2 23.9426 14.32 23.8751L15.82 23.0426C15.9325 22.9826 16.0675 22.9826 16.1875 23.0426L17.6875 23.8751C17.8075 23.9426 17.8825 24.0701 17.8825 24.2051V26.0426C17.8825 26.1776 17.8075 26.3051 17.6875 26.3726L16.1875 27.2051C16.1275 27.2351 16.06 27.2501 16 27.2501ZM14.875 25.8251L16 26.4476L17.125 25.8251V24.4301L16 23.8001L14.875 24.4226V25.8251Z" fill="#6C3BEF"/>
<path d="M23.875 22.8099C23.815 22.8099 23.7475 22.7949 23.695 22.7649L22.195 21.9324C22.075 21.8649 22 21.7374 22 21.6024V19.7724C22 19.6374 22.075 19.5099 22.195 19.4424L23.695 18.6099C23.8075 18.5499 23.9425 18.5499 24.0625 18.6099L25.5625 19.4424C25.675 19.5099 25.75 19.6374 25.75 19.7724V21.6024C25.75 21.7374 25.675 21.8649 25.555 21.9324L24.055 22.7649C24.0025 22.7949 23.935 22.8099 23.875 22.8099ZM22.75 21.3849L23.875 22.0074L25 21.3849V19.9974L23.875 19.3749L22.75 19.9899V21.3849Z" fill="#6C3BEF"/>
<path d="M8.125 22.8099C8.065 22.8099 7.9975 22.7949 7.945 22.7649L6.445 21.9324C6.325 21.8649 6.25 21.7374 6.25 21.6024V19.7724C6.25 19.6374 6.325 19.5099 6.445 19.4424L7.945 18.6099C8.0575 18.5499 8.1925 18.5499 8.3125 18.6099L9.8125 19.4424C9.925 19.5099 10 19.6374 10 19.7724V21.6024C10 21.7374 9.925 21.8649 9.805 21.9324L8.305 22.7649C8.2525 22.7949 8.185 22.8099 8.125 22.8099ZM7 21.3849L8.125 22.0074L9.25 21.3849V19.9974L8.125 19.3749L7 19.9899V21.3849Z" fill="#6C3BEF"/>
<path d="M16 9.0025C15.94 9.0025 15.8725 8.9875 15.82 8.9575L14.32 8.125C14.2 8.0575 14.125 7.93 14.125 7.795V5.9575C14.125 5.8225 14.2 5.695 14.32 5.6275L15.82 4.795C15.9325 4.735 16.0675 4.735 16.1875 4.795L17.6875 5.6275C17.8075 5.695 17.8825 5.8225 17.8825 5.9575V7.795C17.8825 7.93 17.8075 8.0575 17.6875 8.125L16.1875 8.9575C16.1275 8.9875 16.06 9.0025 16 9.0025ZM14.875 7.5775L16 8.2L17.125 7.5775V6.175L16 5.5525L14.875 6.175V7.5775Z" fill="#6C3BEF"/>
<path d="M23.875 13.0599C23.815 13.0599 23.7475 13.0449 23.695 13.0149L22.195 12.1824C22.075 12.1149 22 11.9874 22 11.8524V10.0224C22 9.88744 22.075 9.75994 22.195 9.69244L23.695 8.85994C23.8075 8.79994 23.9425 8.79994 24.0625 8.85994L25.5625 9.69244C25.675 9.75994 25.75 9.88744 25.75 10.0224V11.8524C25.75 11.9874 25.675 12.1149 25.555 12.1824L24.055 13.0149C24.0025 13.0449 23.935 13.0599 23.875 13.0599ZM22.75 11.6349L23.875 12.2574L25 11.6349V10.2399L23.875 9.61744L22.75 10.2399V11.6349Z" fill="#6C3BEF"/>
<path d="M8.125 13.0599C8.065 13.0599 7.9975 13.0449 7.945 13.0149L6.445 12.1824C6.325 12.1149 6.25 11.9874 6.25 11.8524V10.0224C6.25 9.88744 6.325 9.75994 6.445 9.69244L7.945 8.85994C8.0575 8.79994 8.1925 8.79994 8.3125 8.85994L9.8125 9.69244C9.925 9.75994 10 9.88744 10 10.0224V11.8524C10 11.9874 9.925 12.1149 9.805 12.1824L8.305 13.0149C8.2525 13.0449 8.185 13.0599 8.125 13.0599ZM7 11.6349L8.125 12.2574L9.25 11.6349V10.2399L8.125 9.61744L7 10.2399V11.6349Z" fill="#6C3BEF"/>
<path d="M23.875 19.3151C23.665 19.3151 23.5 19.1501 23.5 18.9401V12.6851C23.5 12.4751 23.665 12.3101 23.875 12.3101C24.085 12.3101 24.25 12.4751 24.25 12.6851V18.9401C24.25 19.1501 24.085 19.3151 23.875 19.3151Z" fill="#6C3BEF"/>
<path d="M17.5 24.73C17.365 24.73 17.2375 24.6625 17.17 24.535C17.0725 24.355 17.1325 24.1225 17.3125 24.025L22.225 21.295C22.405 21.1975 22.6375 21.2575 22.735 21.4375C22.8325 21.6175 22.7725 21.85 22.5925 21.9475L17.68 24.6775C17.6275 24.715 17.56 24.73 17.5 24.73Z" fill="#6C3BEF"/>
<path d="M14.5001 24.7302C14.4401 24.7302 14.3726 24.7152 14.3201 24.6852L9.40761 21.9552C9.22761 21.8577 9.16011 21.6252 9.26511 21.4452C9.36261 21.2652 9.59511 21.1977 9.77511 21.3027L14.6876 24.0327C14.8676 24.1302 14.9351 24.3627 14.8301 24.5427C14.7626 24.6627 14.6351 24.7302 14.5001 24.7302Z" fill="#6C3BEF"/>
<path d="M8.125 19.3151C7.915 19.3151 7.75 19.1501 7.75 18.9401V12.6851C7.75 12.4751 7.915 12.3101 8.125 12.3101C8.335 12.3101 8.5 12.4751 8.5 12.6851V18.9401C8.5 19.1501 8.335 19.3151 8.125 19.3151Z" fill="#6C3BEF"/>
<path d="M9.62491 10.7277C9.48991 10.7277 9.36241 10.6602 9.29491 10.5327C9.19741 10.3527 9.26491 10.1277 9.44491 10.0302L14.3199 7.32273C14.4999 7.21773 14.7249 7.28523 14.8299 7.46523C14.9274 7.64523 14.8674 7.87773 14.6874 7.97523L9.81241 10.6827C9.75241 10.7127 9.68491 10.7277 9.62491 10.7277Z" fill="#6C3BEF"/>
<path d="M22.375 10.7277C22.315 10.7277 22.2475 10.7127 22.195 10.6827L17.32 7.97518C17.14 7.87768 17.0725 7.64518 17.1775 7.46518C17.275 7.28518 17.5 7.21768 17.68 7.31518L22.555 10.0227C22.735 10.1202 22.8025 10.3527 22.6975 10.5327C22.6375 10.6602 22.51 10.7277 22.375 10.7277Z" fill="#6C3BEF"/>
<path d="M19.375 13.9749C19.315 13.9749 19.2475 13.9599 19.195 13.9299L16 12.1524L12.805 13.9299C12.625 14.0274 12.3925 13.9674 12.295 13.7874C12.1975 13.6074 12.2575 13.3749 12.4375 13.2774L15.8125 11.4024C15.925 11.3424 16.06 11.3424 16.18 11.4024L19.555 13.2774C19.735 13.3749 19.8025 13.6074 19.6975 13.7874C19.6375 13.9074 19.51 13.9749 19.375 13.9749Z" fill="#6C3BEF"/>
<path d="M16 19.975C15.865 19.975 15.7375 19.9075 15.67 19.78C15.5725 19.6 15.6325 19.3675 15.8125 19.27L19 17.5075V14.2375L16.18 15.805C16 15.9025 15.7675 15.8425 15.67 15.6625C15.5725 15.4825 15.6325 15.25 15.8125 15.1525L19.1875 13.2775C19.3 13.21 19.4425 13.2175 19.5625 13.285C19.6825 13.3525 19.75 13.465 19.75 13.6V17.725C19.75 17.86 19.675 17.9875 19.555 18.055L16.18 19.93C16.1275 19.96 16.06 19.975 16 19.975Z" fill="#6C3BEF"/>
<path d="M16 19.9752C15.94 19.9752 15.8725 19.9602 15.82 19.9302L12.445 18.0552C12.325 17.9877 12.25 17.8602 12.25 17.7252V13.6002C12.25 13.4652 12.3175 13.3452 12.4375 13.2777C12.55 13.2102 12.6925 13.2102 12.8125 13.2702L16.1875 15.1452C16.3075 15.2127 16.3825 15.3402 16.3825 15.4752V19.6002C16.3825 19.7352 16.315 19.8552 16.195 19.9227C16.135 19.9602 16.0675 19.9752 16 19.9752ZM13 17.5077L15.625 18.9627V15.6927L13 14.2377V17.5077Z" fill="#6C3BEF"/>
<path d="M16 23.6275C15.79 23.6275 15.625 23.4625 15.625 23.2525V20.875C15.625 20.665 15.79 20.5 16 20.5C16.21 20.5 16.375 20.665 16.375 20.875V23.2525C16.375 23.455 16.21 23.6275 16 23.6275Z" fill="#6C3BEF"/>
<path d="M20.5001 13.3974C20.3726 13.3974 20.2526 13.3374 20.1851 13.2249C20.0726 13.0524 20.1251 12.8199 20.3051 12.7074L22.1501 11.5449C22.3226 11.4324 22.5551 11.4849 22.6676 11.6649C22.7801 11.8374 22.7276 12.0699 22.5476 12.1824L20.7026 13.3449C20.6351 13.3749 20.5676 13.3974 20.5001 13.3974Z" fill="#6C3BEF"/>
<path d="M11.47 13.3974C11.4025 13.3974 11.335 13.3749 11.2675 13.3374L9.42251 12.1749C9.25001 12.0624 9.19751 11.8299 9.30251 11.6574C9.41501 11.4849 9.64751 11.4324 9.82001 11.5374L11.665 12.6999C11.8375 12.8124 11.89 13.0449 11.785 13.2174C11.7175 13.3374 11.5975 13.3974 11.47 13.3974Z" fill="#6C3BEF"/>
<path d="M22.345 20.1474C22.2775 20.1474 22.21 20.1249 22.1425 20.0874L20.2975 18.9249C20.125 18.8124 20.0725 18.5799 20.1775 18.4074C20.29 18.2349 20.5225 18.1824 20.695 18.2874L22.54 19.4499C22.7125 19.5624 22.765 19.7949 22.66 19.9674C22.5925 20.0874 22.4725 20.1474 22.345 20.1474Z" fill="#6C3BEF"/>
<path d="M9.62494 20.1476C9.49744 20.1476 9.37744 20.0876 9.30994 19.9751C9.19744 19.7951 9.24994 19.5626 9.42244 19.4501L11.2674 18.2876C11.4399 18.1751 11.6724 18.2276 11.7849 18.4076C11.8974 18.5801 11.8449 18.8126 11.6649 18.9251L9.81994 20.0876C9.75994 20.1251 9.69244 20.1476 9.62494 20.1476Z" fill="#6C3BEF"/>
<path d="M16 10.75C15.79 10.75 15.625 10.585 15.625 10.375V8.875C15.625 8.665 15.79 8.5 16 8.5C16.21 8.5 16.375 8.665 16.375 8.875V10.375C16.375 10.585 16.21 10.75 16 10.75Z" fill="#6C3BEF"/>
</svg>
