<svg width="32" height="32" viewBox="0 0 32 32" fill="none" xmlns="http://www.w3.org/2000/svg">
<rect x="0.5" y="0.5" width="31" height="31" fill="#130E1F"/>
<rect x="0.5" y="0.5" width="31" height="31" stroke="#6C3BEF"/>
<g clip-path="url(#clip0_236_5726)">
<path d="M19.8116 17.0953L21.9964 17.5289C22.0731 18.7566 23.1306 19.6895 24.3583 19.6128C25.586 19.536 26.519 18.4785 26.4422 17.2508C26.3655 16.0231 25.308 15.0902 24.0803 15.1669C23.2843 15.2167 22.5758 15.6882 22.2225 16.4031L19.9616 15.9544C19.9371 15.0981 19.6057 14.279 19.0279 13.6465L22.0756 9.3412C23.4869 9.95327 25.1271 9.30537 25.7391 7.89417C26.3512 6.48296 25.7033 4.84268 24.2921 4.23066C22.8809 3.61864 21.2406 4.26649 20.6286 5.67769C20.1895 6.69028 20.3896 7.86661 21.139 8.67693L18.1274 12.9312C16.6866 12.1226 14.8795 12.4055 13.7548 13.6157L9.80838 10.5509C10.3295 9.4338 9.84622 8.10585 8.72914 7.58477C7.612 7.06369 6.28405 7.54693 5.76297 8.66401C5.24189 9.78115 5.72514 11.1091 6.84221 11.6302C7.56693 11.9682 8.41716 11.8927 9.07098 11.4322L13.1139 14.5718C12.4645 15.9903 12.8084 17.6661 13.9641 18.714L11.5423 22.139C10.1126 21.3419 8.30744 21.8548 7.51038 23.2844C6.71332 24.7141 7.22613 26.5193 8.65582 27.3164C10.0855 28.1134 11.8907 27.6006 12.6877 26.1709C13.2721 25.1227 13.1667 23.8255 12.4207 22.8854L14.9267 19.341C15.7999 19.7284 16.7918 19.7502 17.6812 19.4016L20.677 23.827C19.7608 24.8705 19.864 26.459 20.9074 27.375C21.9508 28.2912 23.5393 28.1879 24.4554 27.1446C25.3715 26.1012 25.2683 24.5127 24.2249 23.5966C23.5075 22.9667 22.4952 22.7975 21.6119 23.1599L18.6713 18.8159C19.2113 18.366 19.6078 17.7679 19.8116 17.0953ZM24.2182 16.3108C24.8138 16.3108 25.2967 16.7937 25.2967 17.3893C25.2967 17.9848 24.8138 18.4677 24.2182 18.4677C23.6226 18.4677 23.1398 17.9848 23.1398 17.3893C23.1403 16.7938 23.6229 16.3113 24.2182 16.3108ZM23.1764 5.16178C24.0762 5.16184 24.8058 5.89138 24.8057 6.79127C24.8057 7.69115 24.0761 8.4207 23.1762 8.42064C22.2764 8.42058 21.5469 7.6911 21.5469 6.79121C21.548 5.89167 22.2769 5.16276 23.1764 5.16178ZM7.7897 10.6908C7.19438 10.6901 6.71194 10.2077 6.71126 9.61236C6.71126 9.01676 7.1941 8.53392 7.7897 8.53392C8.3853 8.53392 8.86814 9.01676 8.86814 9.61236C8.86814 10.208 8.38535 10.6908 7.7897 10.6908ZM10.1065 26.5285C9.10824 26.5285 8.299 25.7193 8.29906 24.721C8.29912 23.7227 9.10835 22.9134 10.1066 22.9135C11.1049 22.9136 11.9141 23.7228 11.9141 24.721C11.913 25.7189 11.1044 26.5275 10.1065 26.5285ZM22.5657 24.1201C23.3221 24.121 23.9349 24.7339 23.9358 25.4902C23.9358 26.2469 23.3224 26.8603 22.5657 26.8603C21.809 26.8603 21.1956 26.2469 21.1956 25.4902C21.1956 24.7335 21.8091 24.1201 22.5657 24.1201ZM16.3765 18.5001C15.0299 18.4986 13.9386 17.4073 13.9371 16.0607C13.9371 14.7134 15.0293 13.6213 16.3765 13.6213C17.7238 13.6213 18.8159 14.7134 18.8159 16.0607C18.8159 17.4079 17.7238 18.5001 16.3765 18.5001Z" fill="#6C3BEF"/>
</g>
<defs>
<clipPath id="clip0_236_5726">
<rect width="24" height="24" fill="white" transform="translate(4 4)"/>
</clipPath>
</defs>
</svg>
