<svg width="32" height="33" viewBox="0 0 32 33" fill="none" xmlns="http://www.w3.org/2000/svg">
<rect x="0.5" y="0.581055" width="31" height="31" fill="#130E1F"/>
<rect x="0.5" y="0.581055" width="31" height="31" stroke="#6C3BEF"/>
<g clip-path="url(#clip0_237_6110)">
<path d="M24.1366 14.4409C25.0314 14.4409 25.7595 13.713 25.7595 12.8179V11.1061C25.7595 10.9323 25.6187 10.7912 25.4446 10.7912H23.1435V8.29773C23.1435 7.40289 22.4154 6.6748 21.5205 6.6748H9.13266C8.25895 6.6748 7.5484 7.38539 7.5484 8.25922V23.1559C7.54707 23.7024 7.10156 24.1482 6.55508 24.15C6.55465 24.15 6.55449 24.15 6.55422 24.15C6.38047 24.1505 6.24 24.2915 6.24023 24.465C6.24031 24.6388 6.38121 24.7796 6.55512 24.7796H8.33336C8.38563 24.7796 8.43699 24.7666 8.48309 24.7416L9.35852 24.2682L9.80766 24.6933C9.86785 24.7502 9.94563 24.7796 10.0243 24.7796C10.0764 24.7796 10.1291 24.7666 10.1766 24.7402L11.1311 24.2115L12.0854 24.7402C12.1684 24.7861 12.2679 24.7923 12.3555 24.7566L13.501 24.295L14.2271 24.7341C14.3207 24.7906 14.4363 24.7946 14.5336 24.7449L15.4107 24.2948L16.3774 24.7497C16.4193 24.7693 16.4652 24.7796 16.5114 24.7796H18.4621C18.4638 24.7796 18.4654 24.7792 18.4673 24.7792C19.1961 25.2276 20.0532 25.487 20.9699 25.487C23.611 25.487 25.7595 23.3383 25.7595 20.6972C25.7595 18.0562 23.611 15.9077 20.9699 15.9077C20.8206 15.9077 20.6731 15.9154 20.5273 15.9289V14.441L24.1366 14.4409ZM25.1299 11.4209V12.8179C25.1299 13.3658 24.6843 13.8114 24.1366 13.8114H24.1016C24.0988 13.8112 24.0964 13.8103 24.0939 13.8102C23.5623 13.7864 23.1447 13.3501 23.1435 12.818V11.4209L25.1299 11.4209ZM22.514 8.29773V12.8189C22.5149 13.1926 22.642 13.5368 22.8547 13.8113H20.5274V8.29855C20.5285 7.78098 20.9176 7.35535 21.432 7.30863C21.4393 7.30785 21.4463 7.30559 21.4536 7.30445H21.5206C22.0682 7.30445 22.514 7.75016 22.514 8.29773ZM25.1299 20.6972C25.1299 22.9911 23.2638 24.8573 20.9699 24.8573C18.6761 24.8573 16.8098 22.9911 16.8098 20.6972C16.8098 18.4034 18.6761 16.5372 20.9699 16.5372C23.2638 16.5372 25.1299 18.4034 25.1299 20.6972ZM16.1803 20.6972C16.1803 22.0529 16.7472 23.2778 17.6556 24.15H16.5817L15.5386 23.6593C15.4501 23.6177 15.348 23.6195 15.2611 23.6641L14.4026 24.1045L13.692 23.6749C13.6071 23.6234 13.5034 23.615 13.4115 23.6523L12.2592 24.1168L11.2835 23.5764C11.1887 23.5238 11.0733 23.5238 10.9785 23.5764L10.0732 24.0778L9.62578 23.654C9.52656 23.5607 9.37918 23.5411 9.25965 23.6059L8.25344 24.15H7.83508C8.04895 23.8752 8.17695 23.5305 8.17793 23.1567V8.25922C8.17793 7.73277 8.60625 7.30449 9.13262 7.30449H20.2362C20.0241 7.57914 19.8986 7.9234 19.8976 8.29777V16.0301C17.7713 16.5186 16.1803 18.4249 16.1803 20.6972ZM18.1073 10.7159C18.1073 10.8897 17.9664 11.0306 17.7925 11.0306H10.2833C10.1093 11.0306 9.96844 10.8898 9.96844 10.7159C9.96844 10.5419 10.1093 10.4011 10.2833 10.4011H17.7925C17.9664 10.4011 18.1073 10.5419 18.1073 10.7159ZM18.1073 12.7204C18.1073 12.8942 17.9664 13.0352 17.7925 13.0352H10.2833C10.1093 13.0352 9.96844 12.8943 9.96844 12.7204C9.96844 12.5466 10.1093 12.4055 10.2833 12.4055H17.7925C17.9664 12.4055 18.1073 12.5465 18.1073 12.7204ZM18.1073 14.7252C18.1073 14.899 17.9664 15.0399 17.7925 15.0399H10.2833C10.1093 15.0399 9.96844 14.899 9.96844 14.7252C9.96844 14.5511 10.1093 14.4102 10.2833 14.4102H17.7925C17.9664 14.4102 18.1073 14.5511 18.1073 14.7252ZM17.2873 16.7295C17.2873 16.9034 17.1465 17.0443 16.9725 17.0443H10.2833C10.1093 17.0443 9.96844 16.9035 9.96844 16.7295C9.96844 16.5555 10.1093 16.4147 10.2833 16.4147H16.9725C17.1465 16.4147 17.2873 16.5555 17.2873 16.7295ZM15.9039 18.7341C15.9039 18.9079 15.763 19.0488 15.5891 19.0488H10.2833C10.1093 19.0488 9.96844 18.908 9.96844 18.7341C9.96844 18.5602 10.1093 18.4191 10.2833 18.4191H15.5891C15.763 18.4191 15.9039 18.5602 15.9039 18.7341ZM15.5349 20.7384C15.5349 20.9124 15.394 21.0534 15.2201 21.0534H10.2833C10.1093 21.0534 9.96844 20.9124 9.96844 20.7384C9.96844 20.5646 10.1093 20.4239 10.2833 20.4239H15.2201C15.394 20.4239 15.5349 20.5646 15.5349 20.7384ZM18.6215 20.6972C18.6215 20.5234 18.7623 20.3823 18.9362 20.3823H20.6551V17.4987C20.6551 17.325 20.7961 17.184 20.9699 17.184C21.1438 17.184 21.2847 17.325 21.2847 17.4987V20.6972C21.2847 20.8711 21.1438 21.0121 20.9699 21.0121H18.9362C18.7624 21.0121 18.6215 20.8711 18.6215 20.6972Z" fill="#6C3BEF"/>
</g>
<defs>
<clipPath id="clip0_237_6110">
<rect width="20" height="20" fill="white" transform="translate(6 6.08105)"/>
</clipPath>
</defs>
</svg>
