<svg width="17" height="17" viewBox="0 0 17 17" fill="none" xmlns="http://www.w3.org/2000/svg">
<g clip-path="url(#clip0_219_2020)">
<path d="M5 3.15283H9.5V3.65283H5V3.15283Z" fill="#918DA4"/>
<path d="M5 2.15283H9.5V2.65283H5V2.15283Z" fill="#918DA4"/>
<path d="M5 4.15283H11V4.65283H5V4.15283Z" fill="#918DA4"/>
<path d="M5 5.15283H11V5.65283H5V5.15283Z" fill="#918DA4"/>
<path d="M15.5 7.65283C15.4997 7.38771 15.3942 7.13353 15.2068 6.94605C15.0193 6.75858 14.7651 6.65313 14.5 6.65283H12.5V2.90283C12.5 2.87 12.4935 2.83749 12.481 2.80716C12.4684 2.77683 12.45 2.74927 12.4268 2.72605L10.4268 0.726051C10.4036 0.702836 10.376 0.684422 10.3457 0.671859C10.3153 0.659296 10.2828 0.652831 10.25 0.652832H4.75C4.41859 0.653204 4.10087 0.78502 3.86653 1.01936C3.63219 1.2537 3.50037 1.57143 3.5 1.90283V6.65283H2.75C2.41859 6.6532 2.10087 6.78502 1.86653 7.01936C1.63219 7.2537 1.50037 7.57143 1.5 7.90283V14.4028C1.50037 14.7342 1.63219 15.052 1.86653 15.2863C2.10087 15.5206 2.41859 15.6525 2.75 15.6528H12.75C13.076 15.6524 13.3889 15.5248 13.6223 15.2971C13.8556 15.0695 13.9908 14.7597 13.9992 14.4338L15.4941 7.70705C15.498 7.68925 15.5 7.67107 15.5 7.65283ZM10.5 1.50636L11.6465 2.65283H11.25C11.0512 2.6526 10.8605 2.57351 10.7199 2.43291C10.5793 2.2923 10.5002 2.10167 10.5 1.90283V1.50636ZM4 1.90283C4.00023 1.70399 4.07932 1.51336 4.21993 1.37276C4.36053 1.23216 4.55116 1.15306 4.75 1.15283H10V1.90283C10.0004 2.23424 10.1322 2.55196 10.3665 2.7863C10.6009 3.02064 10.9186 3.15246 11.25 3.15283H12V8.15283H6.60353L5.17678 6.72605C5.15357 6.70284 5.126 6.68442 5.09567 6.67186C5.06534 6.6593 5.03283 6.65283 5 6.65283H4V1.90283ZM13.5 14.4028C13.4998 14.6017 13.4207 14.7923 13.2801 14.9329C13.1395 15.0735 12.9488 15.1526 12.75 15.1528H2.75C2.55116 15.1526 2.36053 15.0735 2.21993 14.9329C2.07932 14.7923 2.00023 14.6017 2 14.4028V7.90283C2.00023 7.70399 2.07932 7.51336 2.21993 7.37276C2.36053 7.23216 2.55116 7.15306 2.75 7.15283H4.89647L6.32322 8.57961C6.34643 8.60283 6.374 8.62124 6.40433 8.63381C6.43466 8.64637 6.46717 8.65283 6.5 8.65283H12.75C12.9488 8.65306 13.1395 8.73216 13.2801 8.87276C13.4207 9.01336 13.4998 9.20399 13.5 9.40283V14.4028ZM14 12.1254V9.40283C13.9996 9.07143 13.8678 8.7537 13.6335 8.51936C13.3991 8.28502 13.0814 8.1532 12.75 8.15283H12.5V7.15283H14.5C14.6283 7.15299 14.7516 7.20238 14.8445 7.29082C14.9375 7.37926 14.9929 7.5 14.9994 7.62811L14 12.1254Z" fill="#918DA4"/>
</g>
<defs>
<clipPath id="clip0_219_2020">
<rect width="16" height="16" fill="white" transform="translate(0.5 0.152832)"/>
</clipPath>
</defs>
</svg>
