<svg width="17" height="17" viewBox="0 0 17 17" fill="none" xmlns="http://www.w3.org/2000/svg">
<g clip-path="url(#clip0_219_2049)">
<path d="M14.5699 12.0153H13.6334V10.7809C13.6334 10.6085 13.4936 10.4688 13.3212 10.4688C13.1488 10.4688 13.009 10.6085 13.009 10.7809V12.3275C13.009 12.4999 13.1488 12.6396 13.3212 12.6396H14.5699C14.7423 12.6396 14.8821 12.4999 14.8821 12.3275C14.8821 12.1551 14.7423 12.0153 14.5699 12.0153Z" fill="#918DA4"/>
<path d="M2.72574 5.12825H7.07781C7.25019 5.12825 7.38998 4.98849 7.38998 4.81608C7.38998 4.64367 7.25019 4.50391 7.07781 4.50391H2.72574C2.55336 4.50391 2.41357 4.64367 2.41357 4.81608C2.41357 4.98849 2.55333 5.12825 2.72574 5.12825Z" fill="#918DA4"/>
<path d="M8.16326 10.1204H2.72574C2.55336 10.1204 2.41357 10.2601 2.41357 10.4325C2.41357 10.6049 2.55336 10.7447 2.72574 10.7447H8.16329C8.33567 10.7447 8.47546 10.6049 8.47546 10.4325C8.47546 10.2601 8.33567 10.1204 8.16326 10.1204Z" fill="#918DA4"/>
<path d="M8.16326 11.9926H2.72574C2.55336 11.9926 2.41357 12.1323 2.41357 12.3047C2.41357 12.4771 2.55336 12.6169 2.72574 12.6169H8.16329C8.33567 12.6169 8.47546 12.4771 8.47546 12.3047C8.47546 12.1323 8.33567 11.9926 8.16326 11.9926Z" fill="#918DA4"/>
<path d="M9.91856 8.24829H2.72574C2.55336 8.24829 2.41357 8.38805 2.41357 8.56046C2.41357 8.73287 2.55336 8.87263 2.72574 8.87263H9.91856C10.0909 8.87263 10.2307 8.73287 10.2307 8.56046C10.2307 8.38805 10.0909 8.24829 9.91856 8.24829Z" fill="#918DA4"/>
<path d="M15.5506 10.0837C14.62 9.15312 13.2475 8.9272 12.1021 9.40567V3.88764C12.1021 3.65932 12.0132 3.44467 11.8518 3.28325L8.972 0.403131C8.90492 0.336076 8.82687 0.281259 8.74224 0.240053C8.73937 0.238492 8.73638 0.237149 8.73347 0.235651C8.7331 0.235464 8.73272 0.235276 8.73235 0.23512C8.72314 0.230469 8.71368 0.226286 8.70397 0.222571C8.59812 0.177244 8.48339 0.152832 8.3673 0.152832H1.4293C0.93117 0.152832 0.525879 0.558092 0.525879 1.05625V15.2494C0.525879 15.7476 0.931139 16.1528 1.42927 16.1528H11.1987C11.6757 16.1528 12.0718 15.7799 12.1006 15.3038C12.101 15.2975 12.1012 15.2913 12.1012 15.285V15.2203C12.4904 15.383 12.9057 15.4646 13.3211 15.4646C14.1285 15.4646 14.9359 15.1573 15.5506 14.5426C16.1461 13.9471 16.4741 13.1553 16.4741 12.3132C16.4741 11.471 16.1461 10.6792 15.5506 10.0837ZM11.0363 3.35071H8.97353C8.93529 3.35071 8.9042 3.31977 8.9042 3.28172V1.21836L11.0363 3.35071ZM11.4768 15.2739C11.4642 15.4173 11.3435 15.5285 11.1987 15.5285H1.4293C1.2754 15.5285 1.15025 15.4033 1.15025 15.2494V1.05625C1.15025 0.902354 1.27543 0.777174 1.4293 0.777174H8.27989V3.28172C8.27989 3.66404 8.59106 3.97505 8.97356 3.97505H11.4778V9.75517C11.3426 9.85273 11.2133 9.96211 11.0917 10.0837C10.4962 10.6793 10.1682 11.471 10.1682 12.3132C10.1682 13.1554 10.4962 13.9471 11.0917 14.5427C11.213 14.664 11.342 14.7731 11.4769 14.8705V15.2739H11.4768ZM15.1091 14.1012C14.1232 15.087 12.519 15.087 11.5331 14.1012C11.0556 13.6236 10.7925 12.9886 10.7925 12.3132C10.7925 11.6378 11.0556 11.0028 11.5331 10.5252C12.0261 10.0323 12.6736 9.7858 13.3211 9.7858C13.9686 9.7858 14.6161 10.0323 15.1091 10.5252C15.5867 11.0028 15.8497 11.6378 15.8497 12.3132C15.8497 12.9886 15.5867 13.6236 15.1091 14.1012Z" fill="#918DA4"/>
<path d="M2.69449 7.02058H8.32646C8.49884 7.02058 8.63863 6.88082 8.63863 6.70841C8.63863 6.536 8.49884 6.39624 8.32646 6.39624H2.69449C2.52211 6.39624 2.38232 6.536 2.38232 6.70841C2.38232 6.88082 2.52208 7.02058 2.69449 7.02058Z" fill="#918DA4"/>
<path d="M9.87995 7.02077C10.0524 7.02077 10.1923 6.88094 10.1923 6.70845C10.1923 6.53595 10.0524 6.39612 9.87995 6.39612C9.70746 6.39612 9.56763 6.53595 9.56763 6.70845C9.56763 6.88094 9.70746 7.02077 9.87995 7.02077Z" fill="#918DA4"/>
</g>
<defs>
<clipPath id="clip0_219_2049">
<rect width="16" height="16" fill="white" transform="translate(0.5 0.152832)"/>
</clipPath>
</defs>
</svg>
