<svg width="17" height="17" viewBox="0 0 17 17" fill="none" xmlns="http://www.w3.org/2000/svg">
<path d="M6.90008 7.67279H3.70024C3.40104 7.67279 3.1196 7.55599 2.90792 7.34367C2.70008 7.13759 2.58008 6.84895 2.58008 6.55279V3.35279C2.58008 3.05359 2.69656 2.77215 2.90792 2.56031C3.11864 2.34911 3.40008 2.23279 3.70024 2.23279H6.90008C7.20008 2.23279 7.48152 2.34911 7.6924 2.56031C7.90376 2.77231 8.02008 3.05359 8.02008 3.35279V6.55279C8.02008 6.84879 7.90024 7.13743 7.69128 7.34479C7.4804 7.55599 7.19912 7.67279 6.90008 7.67279ZM3.70024 2.87279C3.57128 2.87279 3.4508 2.92239 3.36104 3.01247C3.27 3.10335 3.22008 3.22431 3.22008 3.35279V6.55279C3.22008 6.67935 3.27096 6.80239 3.35976 6.89039C3.45192 6.98271 3.5724 7.03279 3.70024 7.03279H6.90008C7.02792 7.03279 7.1484 6.98271 7.23944 6.89151C7.3292 6.80255 7.38008 6.67935 7.38008 6.55279V3.35279C7.38008 3.22431 7.33016 3.10335 7.23928 3.01247C7.14952 2.92239 7.02904 2.87279 6.90008 2.87279H3.70024Z" fill="#918DA4"/>
<path d="M6.90008 14.0728H3.70024C3.40104 14.0728 3.1196 13.956 2.90792 13.7437C2.70008 13.5376 2.58008 13.249 2.58008 12.9528V9.75281C2.58008 9.45361 2.69656 9.17217 2.90792 8.96033C3.11864 8.74913 3.40008 8.63281 3.70024 8.63281H6.90008C7.20008 8.63281 7.48152 8.74913 7.6924 8.96033C7.90376 9.17233 8.02008 9.45361 8.02008 9.75281V12.9528C8.02008 13.2488 7.90024 13.5375 7.69128 13.7448C7.4804 13.956 7.19912 14.0728 6.90008 14.0728ZM3.70024 9.27281C3.57128 9.27281 3.4508 9.32241 3.36104 9.41249C3.27 9.50337 3.22008 9.62433 3.22008 9.75281V12.9528C3.22008 13.0794 3.27096 13.2024 3.35976 13.2904C3.45192 13.3827 3.5724 13.4328 3.70024 13.4328H6.90008C7.02792 13.4328 7.1484 13.3827 7.23944 13.2915C7.3292 13.2026 7.38008 13.0794 7.38008 12.9528V9.75281C7.38008 9.62433 7.33016 9.50337 7.23928 9.41249C7.14952 9.32241 7.02904 9.27281 6.90008 9.27281H3.70024Z" fill="#918DA4"/>
<path d="M13.3 7.67279H10.1001C9.80094 7.67279 9.5195 7.55599 9.30782 7.34367C9.09998 7.13759 8.97998 6.84895 8.97998 6.55279V3.35279C8.97998 3.05359 9.09646 2.77215 9.30782 2.56031C9.51854 2.34911 9.79998 2.23279 10.1001 2.23279H13.3C13.6 2.23279 13.8814 2.34911 14.0923 2.56031C14.3037 2.77231 14.42 3.05359 14.42 3.35279V6.55279C14.42 6.84879 14.3001 7.13743 14.0912 7.34479C13.8803 7.55599 13.599 7.67279 13.3 7.67279ZM10.1001 2.87279C9.97118 2.87279 9.8507 2.92239 9.76094 3.01247C9.6699 3.10335 9.61998 3.22431 9.61998 3.35279V6.55279C9.61998 6.67935 9.67086 6.80239 9.75966 6.89039C9.85182 6.98271 9.9723 7.03279 10.1001 7.03279H13.3C13.4278 7.03279 13.5483 6.98271 13.6393 6.89151C13.7291 6.80255 13.78 6.67935 13.78 6.55279V3.35279C13.78 3.22431 13.7301 3.10335 13.6392 3.01247C13.5494 2.92239 13.4289 2.87279 13.3 2.87279H10.1001Z" fill="#918DA4"/>
<path d="M13.3 14.0728H10.1001C9.80094 14.0728 9.5195 13.956 9.30782 13.7437C9.09998 13.5376 8.97998 13.249 8.97998 12.9528V9.75281C8.97998 9.45361 9.09646 9.17217 9.30782 8.96033C9.51854 8.74913 9.79998 8.63281 10.1001 8.63281H13.3C13.6 8.63281 13.8814 8.74913 14.0923 8.96033C14.3037 9.17233 14.42 9.45361 14.42 9.75281V12.9528C14.42 13.2488 14.3001 13.5375 14.0912 13.7448C13.8803 13.956 13.599 14.0728 13.3 14.0728ZM10.1001 9.27281C9.97118 9.27281 9.8507 9.32241 9.76094 9.41249C9.6699 9.50337 9.61998 9.62433 9.61998 9.75281V12.9528C9.61998 13.0794 9.67086 13.2024 9.75966 13.2904C9.85182 13.3827 9.9723 13.4328 10.1001 13.4328H13.3C13.4278 13.4328 13.5483 13.3827 13.6393 13.2915C13.7291 13.2026 13.78 13.0794 13.78 12.9528V9.75281C13.78 9.62433 13.7301 9.50337 13.6392 9.41249C13.5494 9.32241 13.4289 9.27281 13.3 9.27281H10.1001Z" fill="#918DA4"/>
</svg>
