<svg width="17" height="17" viewBox="0 0 17 17" fill="none" xmlns="http://www.w3.org/2000/svg">
<g clip-path="url(#clip0_219_2105)">
<path d="M8.49988 4.30811C8.91467 4.30811 9.25195 3.9707 9.25195 3.55603C9.25195 3.14124 8.91455 2.80383 8.49988 2.80383C8.08521 2.80383 7.7478 3.14124 7.7478 3.55603C7.7478 3.9707 8.08521 4.30811 8.49988 4.30811ZM8.49988 3.27258C8.65613 3.27258 8.7832 3.39978 8.7832 3.55603C8.7832 3.71216 8.65613 3.83936 8.49988 3.83936C8.34363 3.83936 8.21655 3.71228 8.21655 3.55603C8.21655 3.39978 8.34363 3.27258 8.49988 3.27258Z" fill="#918DA4"/>
<path d="M16.2656 14.6142H15.9823V13.8131C15.9823 13.6837 15.8773 13.5788 15.7479 13.5788H14.9469V12.7777C14.9469 12.6483 14.842 12.5434 14.7125 12.5434H14.4293V7.41434H14.7125C14.842 7.41434 14.9469 7.30936 14.9469 7.17996V6.37894H15.7479C15.8774 6.37894 15.9823 6.27396 15.9823 6.14456V5.10916C15.9823 4.97977 15.8774 4.87479 15.7479 4.87479H15.3035L8.63342 0.256989C8.55322 0.201447 8.4469 0.201447 8.36658 0.256989L1.69666 4.87479H1.25208C1.12268 4.87479 1.0177 4.97964 1.0177 5.10916V6.14456C1.0177 6.27396 1.12268 6.37894 1.25208 6.37894H2.0531V7.17996C2.0531 7.30936 2.15808 7.41434 2.28748 7.41434H2.5708V12.5434H2.28748C2.15808 12.5434 2.0531 12.6482 2.0531 12.7777V13.5788H1.25208C1.12268 13.5788 1.0177 13.6837 1.0177 13.8131V14.6142H0.734375C0.604858 14.6142 0.5 14.719 0.5 14.8485V15.8838C0.5 16.0133 0.604858 16.1182 0.734375 16.1182H16.2656C16.3951 16.1182 16.5 16.0133 16.5 15.8838V14.8485C16.5 14.7191 16.3951 14.6142 16.2656 14.6142ZM14.4781 13.5788H12.3584V13.0121H14.4781V13.5788ZM12.876 12.5434V7.41434H13.9604V12.5434H12.876ZM14.4781 6.94559H12.3584V6.37894H14.4781V6.94559ZM12.124 7.41434H12.4072V12.5434H12.124C11.9945 12.5434 11.8896 12.6482 11.8896 12.7777V13.5788H10.0287V12.7777C10.0287 12.6482 9.92371 12.5434 9.79431 12.5434H9.51099V7.41434H9.79431C9.92371 7.41434 10.0287 7.30936 10.0287 7.17996V6.37894H11.8896V7.17996C11.8896 7.30936 11.9945 7.41434 12.124 7.41434ZM7.44019 6.37894H9.55994V6.94559H7.44019V6.37894ZM7.95776 7.41434H9.04224V12.5434H7.95776V7.41434ZM9.55994 13.0121V13.5788H7.44019V13.0121H9.55994ZM1.48645 5.34354H1.7699H1.77014H1.77026H5.57654C5.70605 5.34354 5.81091 5.23856 5.81091 5.10916C5.81091 4.97964 5.70605 4.87479 5.57654 4.87479H2.52014L8.5 0.734772L14.48 4.87479H6.51404C6.38464 4.87479 6.27966 4.97964 6.27966 5.10916C6.27966 5.23856 6.38464 5.34354 6.51404 5.34354H15.2271H15.2278H15.5135V5.91019H1.48645V5.34354ZM2.52185 6.37894H4.64172V6.94559H2.52185V6.37894ZM4.12402 7.41434V12.5434H3.03955V7.41434H4.12402ZM2.52185 13.0121H4.64172V13.5788H2.52185V13.0121ZM4.8761 12.5434H4.59277V7.41434H4.8761C5.00549 7.41434 5.11047 7.30936 5.11047 7.17996V6.37894H6.97144V7.17996C6.97144 7.30936 7.07629 7.41434 7.20581 7.41434H7.48901V12.5434H7.20581C7.07629 12.5434 6.97144 12.6482 6.97144 12.7777V13.5788H5.11047V12.7777C5.11047 12.6482 5.00549 12.5434 4.8761 12.5434ZM1.48645 14.0475H15.5135V14.6142H1.48645V14.0475ZM16.0312 15.6496H0.96875V15.0829H16.0312V15.6496Z" fill="#918DA4"/>
</g>
<defs>
<clipPath id="clip0_219_2105">
<rect width="16" height="16" fill="white" transform="translate(0.5 0.152832)"/>
</clipPath>
</defs>
</svg>
