<svg width="17" height="17" viewBox="0 0 17 17" fill="none" xmlns="http://www.w3.org/2000/svg">
<g clip-path="url(#clip0_219_2087)">
<path d="M15.3764 7.12854C15.3151 5.38329 14.6084 3.75129 13.3674 2.51029C12.0666 1.20929 10.3379 0.493042 8.49989 0.493042C4.78764 0.493042 1.75439 3.44779 1.62364 7.12854C1.05714 7.38029 0.660645 7.94729 0.660645 8.60629V10.4218C0.660645 11.3133 1.38589 12.0388 2.27764 12.0388C2.85464 12.0388 3.32389 11.5695 3.32389 10.9925V8.03529C3.32389 7.49354 2.90839 7.05179 2.38014 6.99929C2.57514 3.79254 5.24464 1.24304 8.49989 1.24304C10.1379 1.24304 11.6781 1.88154 12.8374 3.04079C13.9019 4.10529 14.5249 5.49279 14.6186 6.99954C14.0909 7.05254 13.6761 7.49404 13.6761 8.03529V10.9923C13.6761 11.5385 14.0981 11.983 14.6326 12.0293V12.7765C14.6326 13.618 13.9479 14.3025 13.1064 14.3025H11.9761C11.9206 14.144 11.8336 13.9975 11.7116 13.876C11.4979 13.6613 11.2129 13.543 10.9094 13.543H9.74439C9.57714 13.543 9.41664 13.5785 9.26964 13.647C8.86864 13.8313 8.60964 14.2358 8.60964 14.6775C8.60964 14.981 8.72789 15.266 8.94214 15.4793C9.15639 15.694 9.44139 15.8123 9.74439 15.8123H10.9094C11.3924 15.8123 11.8181 15.5 11.9769 15.0525H13.1064C14.3616 15.0525 15.3826 14.0315 15.3826 12.7765V11.8958C15.9456 11.6425 16.3391 11.0775 16.3391 10.4213V8.60579C16.3391 7.94729 15.9426 7.38029 15.3764 7.12854ZM2.57364 8.03529V10.9923C2.57364 11.1555 2.44089 11.2885 2.27739 11.2885C1.79939 11.2885 1.41039 10.8995 1.41039 10.4215V8.60604C1.41039 8.12779 1.79939 7.73904 2.27739 7.73904C2.44089 7.73904 2.57364 7.87204 2.57364 8.03529ZM11.2856 14.758C11.2484 14.9345 11.0899 15.0628 10.9091 15.0628H9.74414C9.64164 15.0628 9.54539 15.0228 9.47189 14.9493C9.39939 14.877 9.35939 14.7805 9.35939 14.678C9.35939 14.5283 9.44714 14.3915 9.58464 14.3283C9.63364 14.3053 9.68739 14.2935 9.74414 14.2935H10.9091C11.0116 14.2935 11.1079 14.3333 11.1811 14.4068C11.2536 14.479 11.2936 14.5755 11.2936 14.678C11.2939 14.7055 11.2909 14.733 11.2856 14.758ZM15.5891 10.4215C15.5891 10.8995 15.2001 11.2885 14.7221 11.2885C14.5589 11.2885 14.4259 11.1558 14.4259 10.9923V8.03529C14.4259 7.87204 14.5586 7.73904 14.7221 7.73904C15.2001 7.73904 15.5891 8.12804 15.5891 8.60604V10.4215Z" fill="#918DA4"/>
<path d="M10.9282 10.5508C11.8044 10.5508 12.5172 9.83776 12.5172 8.96176V5.72401C12.5172 5.30051 12.3517 4.90151 12.0512 4.60101C11.7507 4.30051 11.3519 4.13501 10.9282 4.13501H6.07167C5.19542 4.13501 4.48267 4.84776 4.48267 5.72401V8.96176C4.48267 9.83801 5.19542 10.5508 6.07167 10.5508H6.10142V11.3898C6.10142 11.7098 6.29217 11.9938 6.58717 12.1135C6.68242 12.1518 6.78142 12.1708 6.87942 12.1708C7.08367 12.1708 7.28267 12.0898 7.42842 11.939L8.82417 10.5508H10.9282ZM8.40542 9.90976L6.89492 11.412C6.88817 11.419 6.88317 11.4243 6.86892 11.418C6.85167 11.411 6.85167 11.3998 6.85167 11.3898V10.1758C6.85167 9.96876 6.68392 9.80076 6.47667 9.80076H6.07192C5.60917 9.80076 5.23292 9.42426 5.23292 8.96176V5.72401C5.23292 5.26126 5.60917 4.88501 6.07192 4.88501H10.9284C11.1519 4.88501 11.3622 4.97251 11.5212 5.13126C11.6802 5.29026 11.7674 5.50076 11.7674 5.72401V8.96176C11.7674 9.42451 11.3909 9.80076 10.9284 9.80076H8.66992C8.57067 9.80076 8.47567 9.84001 8.40542 9.90976Z" fill="#918DA4"/>
<path d="M6.67825 6.84949C6.37325 6.84949 6.125 7.09799 6.125 7.40274C6.125 7.70749 6.3735 7.95599 6.67825 7.95599C6.9835 7.95599 7.232 7.70749 7.232 7.40274C7.232 7.09799 6.98375 6.84949 6.67825 6.84949Z" fill="#918DA4"/>
<path d="M8.49954 6.84949C8.19454 6.84949 7.94629 7.09799 7.94629 7.40274C7.94629 7.70749 8.19479 7.95599 8.49954 7.95599C8.80504 7.95599 9.05329 7.70749 9.05329 7.40274C9.05329 7.09799 8.80504 6.84949 8.49954 6.84949Z" fill="#918DA4"/>
<path d="M10.3211 6.84949C10.0161 6.84949 9.76782 7.09799 9.76782 7.40274C9.76782 7.70749 10.0163 7.95599 10.3211 7.95599C10.6263 7.95599 10.8748 7.70749 10.8748 7.40274C10.8748 7.09799 10.6263 6.84949 10.3211 6.84949Z" fill="#918DA4"/>
</g>
<defs>
<clipPath id="clip0_219_2087">
<rect width="16" height="16" fill="white" transform="translate(0.5 0.152832)"/>
</clipPath>
</defs>
</svg>
