<svg width="17" height="17" viewBox="0 0 17 17" fill="none" xmlns="http://www.w3.org/2000/svg">
<g clip-path="url(#clip0_219_1950)">
<path d="M8.5 15.6529C8.46 15.6529 8.415 15.6429 8.38 15.6229L7.38 15.0679C7.3 15.0229 7.25 14.9379 7.25 14.8479V13.6229C7.25 13.5329 7.3 13.4479 7.38 13.4029L8.38 12.8479C8.455 12.8079 8.545 12.8079 8.625 12.8479L9.625 13.4029C9.705 13.4479 9.755 13.5329 9.755 13.6229V14.8479C9.755 14.9379 9.705 15.0229 9.625 15.0679L8.625 15.6229C8.585 15.6429 8.54 15.6529 8.5 15.6529ZM7.75 14.7029L8.5 15.1179L9.25 14.7029V13.7729L8.5 13.3529L7.75 13.7679V14.7029Z" fill="#918DA4"/>
<path d="M13.75 12.6929C13.71 12.6929 13.665 12.6829 13.63 12.6629L12.63 12.1079C12.55 12.0629 12.5 11.9779 12.5 11.8879V10.6679C12.5 10.5779 12.55 10.4929 12.63 10.4479L13.63 9.89292C13.705 9.85292 13.795 9.85292 13.875 9.89292L14.875 10.4479C14.95 10.4929 15 10.5779 15 10.6679V11.8879C15 11.9779 14.95 12.0629 14.87 12.1079L13.87 12.6629C13.835 12.6829 13.79 12.6929 13.75 12.6929ZM13 11.7429L13.75 12.1579L14.5 11.7429V10.8179L13.75 10.4029L13 10.8129V11.7429Z" fill="#918DA4"/>
<path d="M3.25 12.6929C3.21 12.6929 3.165 12.6829 3.13 12.6629L2.13 12.1079C2.05 12.0629 2 11.9779 2 11.8879V10.6679C2 10.5779 2.05 10.4929 2.13 10.4479L3.13 9.89292C3.205 9.85292 3.295 9.85292 3.375 9.89292L4.375 10.4479C4.45 10.4929 4.5 10.5779 4.5 10.6679V11.8879C4.5 11.9779 4.45 12.0629 4.37 12.1079L3.37 12.6629C3.335 12.6829 3.29 12.6929 3.25 12.6929ZM2.5 11.7429L3.25 12.1579L4 11.7429V10.8179L3.25 10.4029L2.5 10.8129V11.7429Z" fill="#918DA4"/>
<path d="M8.5 3.48789C8.46 3.48789 8.415 3.47789 8.38 3.45789L7.38 2.90289C7.3 2.85789 7.25 2.77289 7.25 2.68289V1.45789C7.25 1.36789 7.3 1.28289 7.38 1.23789L8.38 0.682893C8.455 0.642893 8.545 0.642893 8.625 0.682893L9.625 1.23789C9.705 1.28289 9.755 1.36789 9.755 1.45789V2.68289C9.755 2.77289 9.705 2.85789 9.625 2.90289L8.625 3.45789C8.585 3.47789 8.54 3.48789 8.5 3.48789ZM7.75 2.53789L8.5 2.95289L9.25 2.53789V1.60289L8.5 1.18789L7.75 1.60289V2.53789Z" fill="#918DA4"/>
<path d="M13.75 6.19291C13.71 6.19291 13.665 6.18292 13.63 6.16292L12.63 5.60791C12.55 5.56291 12.5 5.47792 12.5 5.38792V4.16791C12.5 4.07791 12.55 3.99292 12.63 3.94792L13.63 3.39292C13.705 3.35292 13.795 3.35292 13.875 3.39292L14.875 3.94792C14.95 3.99292 15 4.07791 15 4.16791V5.38792C15 5.47792 14.95 5.56291 14.87 5.60791L13.87 6.16292C13.835 6.18292 13.79 6.19291 13.75 6.19291ZM13 5.24292L13.75 5.65792L14.5 5.24292V4.31291L13.75 3.89791L13 4.31291V5.24292Z" fill="#918DA4"/>
<path d="M3.25 6.19291C3.21 6.19291 3.165 6.18292 3.13 6.16292L2.13 5.60791C2.05 5.56291 2 5.47792 2 5.38792V4.16791C2 4.07791 2.05 3.99292 2.13 3.94792L3.13 3.39292C3.205 3.35292 3.295 3.35292 3.375 3.39292L4.375 3.94792C4.45 3.99292 4.5 4.07791 4.5 4.16791V5.38792C4.5 5.47792 4.45 5.56291 4.37 5.60791L3.37 6.16292C3.335 6.18292 3.29 6.19291 3.25 6.19291ZM2.5 5.24292L3.25 5.65792L4 5.24292V4.31291L3.25 3.89791L2.5 4.31291V5.24292Z" fill="#918DA4"/>
<path d="M13.75 10.3629C13.61 10.3629 13.5 10.2529 13.5 10.1129V5.94287C13.5 5.80287 13.61 5.69287 13.75 5.69287C13.89 5.69287 14 5.80287 14 5.94287V10.1129C14 10.2529 13.89 10.3629 13.75 10.3629Z" fill="#918DA4"/>
<path d="M9.49999 13.9729C9.40999 13.9729 9.32499 13.9279 9.27999 13.8429C9.21499 13.7229 9.25499 13.5679 9.37499 13.5029L12.65 11.6829C12.77 11.6179 12.925 11.6579 12.99 11.7779C13.055 11.8979 13.015 12.0529 12.895 12.1179L9.61999 13.9379C9.58499 13.9629 9.53999 13.9729 9.49999 13.9729Z" fill="#918DA4"/>
<path d="M7.49999 13.9728C7.45999 13.9728 7.41499 13.9628 7.37999 13.9428L4.10499 12.1228C3.98499 12.0578 3.93999 11.9028 4.00999 11.7828C4.07499 11.6628 4.22999 11.6178 4.34999 11.6878L7.62499 13.5078C7.74499 13.5728 7.78999 13.7278 7.71999 13.8478C7.67499 13.9278 7.58999 13.9728 7.49999 13.9728Z" fill="#918DA4"/>
<path d="M3.25 10.3629C3.11 10.3629 3 10.2529 3 10.1129V5.94287C3 5.80287 3.11 5.69287 3.25 5.69287C3.39 5.69287 3.5 5.80287 3.5 5.94287V10.1129C3.5 10.2529 3.39 10.3629 3.25 10.3629Z" fill="#918DA4"/>
<path d="M4.25002 4.6379C4.16002 4.6379 4.07502 4.5929 4.03002 4.5079C3.96502 4.3879 4.01002 4.2379 4.13002 4.1729L7.38002 2.3679C7.50002 2.2979 7.65002 2.3429 7.72002 2.4629C7.78502 2.5829 7.74502 2.7379 7.62502 2.8029L4.37502 4.6079C4.33502 4.6279 4.29002 4.6379 4.25002 4.6379Z" fill="#918DA4"/>
<path d="M12.7499 4.63791C12.7099 4.63791 12.6649 4.62791 12.6299 4.60791L9.37989 2.80291C9.25989 2.73791 9.21489 2.58291 9.28489 2.46291C9.34989 2.34291 9.49989 2.29791 9.61989 2.36291L12.8699 4.16791C12.9899 4.23291 13.0349 4.38791 12.9649 4.50791C12.9249 4.59291 12.8399 4.63791 12.7499 4.63791Z" fill="#918DA4"/>
<path d="M10.75 6.80286C10.71 6.80286 10.665 6.79286 10.63 6.77286L8.49999 5.58786L6.36999 6.77286C6.24999 6.83786 6.09499 6.79786 6.02999 6.67786C5.96499 6.55786 6.00499 6.40286 6.12499 6.33786L8.37499 5.08786C8.44999 5.04786 8.53999 5.04786 8.61999 5.08786L10.87 6.33786C10.99 6.40286 11.035 6.55786 10.965 6.67786C10.925 6.75786 10.84 6.80286 10.75 6.80286Z" fill="#918DA4"/>
<path d="M8.49999 10.8029C8.40999 10.8029 8.32499 10.7579 8.27999 10.6729C8.21499 10.5529 8.25499 10.3979 8.37499 10.3329L10.5 9.15787V6.97787L8.61999 8.02287C8.49999 8.08787 8.34499 8.04787 8.27999 7.92787C8.21499 7.80787 8.25499 7.65287 8.37499 7.58787L10.625 6.33787C10.7 6.29287 10.795 6.29787 10.875 6.34287C10.955 6.38787 11 6.46287 11 6.55287V9.30287C11 9.39287 10.95 9.47787 10.87 9.52287L8.61999 10.7729C8.58499 10.7929 8.53999 10.8029 8.49999 10.8029Z" fill="#918DA4"/>
<path d="M8.5 10.8029C8.46 10.8029 8.415 10.7929 8.38 10.7729L6.13 9.52287C6.05 9.47787 6 9.39287 6 9.30287V6.55287C6 6.46287 6.045 6.38287 6.125 6.33787C6.2 6.29287 6.295 6.29287 6.375 6.33287L8.625 7.58287C8.705 7.62787 8.755 7.71287 8.755 7.80287V10.5529C8.755 10.6429 8.71 10.7229 8.63 10.7679C8.59 10.7929 8.545 10.8029 8.5 10.8029ZM6.5 9.15787L8.25 10.1279V7.94787L6.5 6.97787V9.15787Z" fill="#918DA4"/>
<path d="M8.5 13.2378C8.36 13.2378 8.25 13.1278 8.25 12.9878V11.4028C8.25 11.2628 8.36 11.1528 8.5 11.1528C8.64 11.1528 8.75 11.2628 8.75 11.4028V12.9878C8.75 13.1228 8.64 13.2378 8.5 13.2378Z" fill="#918DA4"/>
<path d="M11.4999 6.41784C11.4149 6.41784 11.3349 6.37784 11.2899 6.30284C11.2149 6.18784 11.2499 6.03284 11.3699 5.95784L12.5999 5.18284C12.7149 5.10784 12.8699 5.14284 12.9449 5.26284C13.0199 5.37784 12.9849 5.53284 12.8649 5.60784L11.6349 6.38284C11.5899 6.40284 11.5449 6.41784 11.4999 6.41784Z" fill="#918DA4"/>
<path d="M5.48001 6.41795C5.43501 6.41795 5.39001 6.40295 5.34501 6.37795L4.11501 5.60295C4.00001 5.52795 3.96501 5.37295 4.03501 5.25795C4.11001 5.14295 4.26501 5.10795 4.38001 5.17795L5.61001 5.95295C5.72501 6.02795 5.76001 6.18295 5.69001 6.29795C5.64501 6.37795 5.56501 6.41795 5.48001 6.41795Z" fill="#918DA4"/>
<path d="M12.73 10.9178C12.685 10.9178 12.64 10.9028 12.595 10.8778L11.365 10.1028C11.25 10.0278 11.215 9.87283 11.285 9.75783C11.36 9.64283 11.515 9.60783 11.63 9.67783L12.86 10.4528C12.975 10.5278 13.01 10.6828 12.94 10.7978C12.895 10.8778 12.815 10.9178 12.73 10.9178Z" fill="#918DA4"/>
<path d="M4.25012 10.9178C4.16512 10.9178 4.08512 10.8778 4.04012 10.8028C3.96512 10.6828 4.00012 10.5278 4.11512 10.4528L5.34512 9.67783C5.46012 9.60283 5.61512 9.63783 5.69012 9.75783C5.76512 9.87283 5.73012 10.0278 5.61012 10.1028L4.38012 10.8778C4.34012 10.9028 4.29512 10.9178 4.25012 10.9178Z" fill="#918DA4"/>
<path d="M8.5 4.65283C8.36 4.65283 8.25 4.54283 8.25 4.40283V3.40283C8.25 3.26283 8.36 3.15283 8.5 3.15283C8.64 3.15283 8.75 3.26283 8.75 3.40283V4.40283C8.75 4.54283 8.64 4.65283 8.5 4.65283Z" fill="#918DA4"/>
</g>
<defs>
<clipPath id="clip0_219_1950">
<rect width="16" height="16" fill="white" transform="translate(0.5 0.152893)"/>
</clipPath>
</defs>
</svg>
