<svg width="17" height="17" viewBox="0 0 17 17" fill="none" xmlns="http://www.w3.org/2000/svg">
<path d="M10.8927 1.75018L10.3883 1.49782C9.97056 1.28882 9.4625 1.45796 9.2534 1.87565L9.12737 2.12772C8.94649 2.03657 8.73032 2.05127 8.56345 2.16607C7.70291 1.77865 4.13329 0.356447 1.83306 2.32199C1.65201 2.46098 1.57492 2.69689 1.63894 2.91597C1.70296 3.13505 1.89495 3.29232 2.12235 3.31195C3.92582 3.41358 5.68962 3.88196 7.30591 4.68848C7.31874 4.88734 7.43588 5.06455 7.61381 5.15428L3.25442 13.8702C3.07044 14.2311 3.09408 14.6629 3.31636 15.0015C3.53863 15.34 3.92539 15.5335 4.32964 15.5082C4.73388 15.4829 5.09352 15.2428 5.27184 14.8791L9.63123 6.16342C9.80949 6.2536 10.0225 6.24111 10.1889 6.13071C11.8035 6.94008 13.236 8.07028 14.3989 9.4522C14.5511 9.62213 14.792 9.68125 15.0056 9.60112C15.2192 9.52098 15.3617 9.318 15.3646 9.08988C15.5578 6.07093 12.2802 4.06761 11.4535 3.61252C11.4454 3.40955 11.327 3.22725 11.1448 3.13742L11.2711 2.88535C11.3715 2.68465 11.3881 2.45227 11.3171 2.23936C11.2461 2.02646 11.0935 1.85049 10.8927 1.75018ZM9.75783 2.12941C9.79108 2.06202 9.84986 2.01068 9.92111 1.98681C9.99237 1.96293 10.0702 1.96849 10.1373 2.00225L10.6418 2.25601C10.7087 2.28947 10.7595 2.34813 10.7832 2.4191C10.8068 2.49006 10.8013 2.56751 10.7678 2.6344L10.6415 2.88619L9.63179 2.38036L9.75783 2.12941ZM2.19932 2.74972C4.15133 1.08249 7.32226 2.24981 8.23948 2.64258L7.48692 4.14937C5.83471 3.33664 4.03726 2.86085 2.19932 2.74972ZM4.76742 14.6262C4.62514 14.899 4.29037 15.0075 4.01514 14.8698C3.7399 14.7322 3.62585 14.3993 3.75885 14.1217L8.11823 5.40663L9.1268 5.91134L4.76742 14.6262ZM9.88358 5.65899L9.63151 5.53295L7.86644 4.64985L8.87558 2.63271L10.8927 3.64156L9.88358 5.65927V5.65899ZM14.8018 9.05407C13.6109 7.65042 12.1527 6.49767 10.5121 5.66294L11.2652 4.15586C12.1302 4.65352 14.9662 6.48823 14.8018 9.05407Z" fill="#6C3BEF"/>
</svg>
