<svg width="17" height="17" viewBox="0 0 17 17" fill="none" xmlns="http://www.w3.org/2000/svg">
<g clip-path="url(#clip0_219_2061)">
<path d="M10.3667 9.48621H10.0733C9.963 9.48641 9.8643 9.41757 9.8264 9.31394C9.79387 9.22861 9.75893 9.14514 9.72134 9.06247C9.6746 8.96194 9.69593 8.84291 9.77467 8.76487L9.98374 8.55554C10.2941 8.24244 10.2935 7.73751 9.9824 7.42514L9.2288 6.67154C8.91603 6.36061 8.4109 6.36061 8.09813 6.67154L7.88907 6.88034C7.81087 6.95877 7.69203 6.98007 7.59147 6.93367C7.5088 6.89607 7.42533 6.86114 7.33973 6.82701C7.23557 6.78937 7.16627 6.69031 7.16667 6.57954V6.28621C7.16667 5.84437 6.8085 5.48621 6.36667 5.48621H5.3C4.85817 5.48621 4.5 5.84437 4.5 6.28621V6.57954C4.5002 6.68987 4.43137 6.78857 4.32773 6.82647C4.2424 6.85901 4.15893 6.89394 4.07627 6.93154C3.9757 6.97804 3.85683 6.95674 3.77867 6.87821L3.56933 6.66914C3.2566 6.35841 2.75167 6.35841 2.43893 6.66914L1.68533 7.42514C1.3744 7.73791 1.3744 8.24304 1.68533 8.55581L1.89413 8.76487C1.97287 8.84291 1.9942 8.96194 1.94747 9.06247C1.90987 9.14514 1.87493 9.22861 1.84213 9.31421C1.80397 9.41844 1.70433 9.48734 1.59333 9.48621H1.3C0.858167 9.48621 0.5 9.84437 0.5 10.2862V11.3529C0.5 11.7947 0.858167 12.1529 1.3 12.1529H1.59333C1.70367 12.1527 1.80237 12.2215 1.84027 12.3251C1.8728 12.4105 1.90773 12.4939 1.94533 12.5766C1.99207 12.6771 1.97073 12.7962 1.892 12.8742L1.68293 13.0835C1.3722 13.3963 1.3722 13.9012 1.68293 14.2139L2.43653 14.9675C2.7493 15.2785 3.25443 15.2785 3.5672 14.9675L3.77627 14.7587C3.85447 14.6803 3.9733 14.659 4.07387 14.7054C4.15653 14.743 4.24 14.7779 4.3256 14.8121C4.4303 14.8493 4.5002 14.9484 4.5 15.0595V15.3529C4.5 15.7947 4.85817 16.1529 5.3 16.1529H6.36667C6.8085 16.1529 7.16667 15.7947 7.16667 15.3529V15.0595C7.16647 14.9492 7.2353 14.8505 7.33893 14.8126C7.42427 14.7801 7.50773 14.7451 7.5904 14.7075C7.69097 14.661 7.80983 14.6823 7.888 14.7609L8.09733 14.9699C8.4105 15.2802 8.9153 15.2796 9.22773 14.9686L9.98133 14.215C10.2923 13.9022 10.2923 13.3971 9.98133 13.0843L9.77253 12.8753C9.6938 12.7972 9.67247 12.6782 9.7192 12.5777C9.7568 12.495 9.79173 12.4115 9.82587 12.3259C9.8635 12.2218 9.96257 12.1525 10.0733 12.1529H10.3667C10.8085 12.1529 11.1667 11.7947 11.1667 11.3529V10.2862C11.1667 9.84437 10.8085 9.48621 10.3667 9.48621ZM10.6333 11.3529C10.6333 11.5001 10.5139 11.6195 10.3667 11.6195H10.0733C9.74184 11.6208 9.44517 11.8257 9.32667 12.1353C9.2984 12.2099 9.26783 12.2834 9.23493 12.3558C9.09783 12.6585 9.16143 13.0143 9.39493 13.2507L9.60347 13.4595C9.70767 13.5636 9.70777 13.7325 9.60367 13.8367C9.6036 13.8367 9.60353 13.8368 9.60347 13.8369L8.84987 14.5905C8.74574 14.6946 8.57693 14.6946 8.4728 14.5905L8.26373 14.3817C8.02743 14.148 7.67143 14.0843 7.3688 14.2217C7.29653 14.2545 7.22293 14.2851 7.1488 14.3134C6.83943 14.4319 6.63467 14.7283 6.63333 15.0595V15.3529C6.63333 15.5001 6.51393 15.6195 6.36667 15.6195H5.3C5.15273 15.6195 5.03333 15.5001 5.03333 15.3529V15.0595C5.0321 14.728 4.8272 14.4314 4.5176 14.3129C4.44293 14.2846 4.36943 14.254 4.29707 14.2211C3.9944 14.0841 3.63857 14.1477 3.40213 14.3811L3.19333 14.5897C3.08927 14.6939 2.9204 14.694 2.8162 14.5899C2.81613 14.5898 2.81607 14.5897 2.816 14.5897L2.0624 13.8369C1.9583 13.7327 1.9583 13.5639 2.0624 13.4598L2.2712 13.2507C2.5047 13.0143 2.5683 12.6585 2.4312 12.3558C2.3984 12.2835 2.36773 12.2099 2.33947 12.1358C2.22127 11.8261 1.9248 11.621 1.59333 11.6195H1.3C1.15273 11.6195 1.03333 11.5001 1.03333 11.3529V10.2862C1.03333 10.1389 1.15273 10.0195 1.3 10.0195H1.59333C1.92483 10.0183 2.2215 9.81341 2.34 9.50381C2.36827 9.42914 2.39883 9.35564 2.43173 9.28327C2.56883 8.98061 2.5052 8.62474 2.27173 8.38834L2.06213 8.17954C1.95793 8.07547 1.95783 7.90661 2.06193 7.80241C2.062 7.80234 2.06207 7.80227 2.06213 7.80221L2.81573 7.04861C2.91987 6.94451 3.08867 6.94451 3.1928 7.04861L3.40187 7.25741C3.63817 7.49111 3.99417 7.55474 4.2968 7.41741C4.36907 7.38461 4.44267 7.35394 4.5168 7.32567C4.8266 7.20757 5.03183 6.91107 5.03333 6.57954V6.28621C5.03333 6.13894 5.15273 6.01954 5.3 6.01954H6.36667C6.51393 6.01954 6.63333 6.13894 6.63333 6.28621V6.57954C6.63457 6.91104 6.83947 7.20771 7.14907 7.32621C7.22373 7.35447 7.29723 7.38504 7.3696 7.41794C7.67223 7.55527 8.02823 7.49164 8.26453 7.25794L8.47333 7.04941C8.57787 6.94601 8.74613 6.94601 8.85067 7.04941L9.60427 7.80301C9.70837 7.90714 9.70837 8.07594 9.60427 8.18007L9.39547 8.38914C9.162 8.62554 9.09837 8.98141 9.23547 9.28407C9.26827 9.35634 9.29893 9.42994 9.3272 9.50407C9.44567 9.81344 9.74207 10.0182 10.0733 10.0195H10.3667C10.5139 10.0195 10.6333 10.1389 10.6333 10.2862V11.3529Z" fill="#918DA4"/>
<path d="M8.22793 10.7129C8.22527 10.6489 8.22074 10.5852 8.213 10.5217C8.20447 10.4534 8.19434 10.3857 8.1802 10.3193C8.17087 10.2758 8.1586 10.2329 8.14687 10.1897C8.13194 10.1348 8.11514 10.0806 8.09647 10.0273C8.0834 9.99022 8.0698 9.95342 8.05593 9.91689C8.0216 9.83149 7.98234 9.74812 7.93833 9.66729C7.93487 9.66116 7.93274 9.65449 7.92927 9.64836C7.8599 9.52489 7.77957 9.40786 7.68927 9.29876C7.68153 9.28916 7.67274 9.28009 7.66474 9.27076C7.62793 9.22729 7.59007 9.18516 7.55033 9.14489C7.52953 9.12329 7.50767 9.10302 7.4858 9.08222C7.45914 9.05742 7.43247 9.03289 7.4058 9.00942C7.37343 8.98132 7.34047 8.95412 7.30687 8.92782L7.26313 8.89529C6.8505 8.58622 6.3488 8.41929 5.83327 8.41956C5.8066 8.41956 5.77993 8.42356 5.75327 8.42462C5.69647 8.42622 5.6394 8.42942 5.58207 8.43529C5.55193 8.43849 5.52153 8.44196 5.4914 8.44622C5.40447 8.45766 5.3182 8.47379 5.233 8.49449C3.94897 8.82629 3.17703 10.1362 3.50883 11.4203C3.7275 12.2664 4.38857 12.9269 5.23487 13.1449C5.23913 13.1449 5.24367 13.1462 5.2482 13.1473C5.3403 13.1703 5.4336 13.1881 5.52767 13.2006C5.5898 13.2084 5.65193 13.21 5.71433 13.2129C5.75593 13.215 5.79433 13.2212 5.8378 13.2212C5.9138 13.2212 5.99273 13.2161 6.07327 13.2081C6.0818 13.2081 6.09033 13.2057 6.09993 13.2046C6.16473 13.1974 6.23033 13.1878 6.29727 13.1745C6.32393 13.1694 6.34873 13.1628 6.37433 13.1569C6.42127 13.146 6.46793 13.1345 6.51593 13.1204C6.55327 13.1092 6.58953 13.0961 6.62607 13.0833C6.6626 13.0705 6.70047 13.0566 6.73833 13.0422C6.7762 13.0278 6.80793 13.0113 6.84233 12.9953C6.88714 12.9748 6.93167 12.9545 6.97567 12.9305H6.97727C7.22614 12.7973 7.456 12.6313 7.66074 12.4369C7.71604 12.3853 7.76413 12.3264 7.80367 12.262C8.0118 11.9283 8.14854 11.5551 8.20527 11.166C8.21274 11.1145 8.2194 11.063 8.2234 11.0105C8.22714 10.9622 8.2298 10.9142 8.23087 10.8662C8.23087 10.851 8.233 10.8366 8.233 10.8214C8.23327 10.7838 8.22954 10.7492 8.22793 10.7129ZM7.69647 10.8876C7.69647 10.9097 7.6946 10.9318 7.69327 10.9537C7.68847 11.0182 7.6802 11.0828 7.66927 11.1476C7.5696 11.702 7.22537 12.182 6.7322 12.4542C6.69914 12.4716 6.6666 12.4878 6.63407 12.5028L6.61193 12.5134C6.457 12.5838 6.29347 12.6333 6.12554 12.6606C6.1138 12.6625 6.1018 12.6646 6.0898 12.6662C6.05647 12.671 6.02367 12.675 5.99113 12.678C5.9482 12.6817 5.905 12.6838 5.861 12.6846C5.84233 12.6846 5.82393 12.6846 5.80527 12.6846C5.74217 12.6839 5.67917 12.68 5.61647 12.6729L5.58447 12.6692C5.51113 12.6596 5.4384 12.6459 5.3666 12.6281C4.36787 12.3725 3.76547 11.3556 4.02107 10.3569C4.18997 9.69692 4.70497 9.18139 5.36473 9.01182V9.01156C5.51793 8.97292 5.67527 8.95319 5.83327 8.95289C5.9095 8.95332 5.98567 8.95849 6.06127 8.96836C6.08153 8.97076 6.10153 8.97449 6.12153 8.97742C6.17913 8.98649 6.2362 8.99796 6.29247 9.01236C6.31087 9.01716 6.32927 9.02142 6.3474 9.02649C6.4892 9.06742 6.6257 9.12489 6.75407 9.19769C6.7746 9.20969 6.7946 9.22222 6.81487 9.23476C6.857 9.26142 6.8978 9.28809 6.93807 9.31849C6.95967 9.33422 6.98154 9.34969 7.00234 9.36649C7.05467 9.40829 7.10477 9.45279 7.15247 9.49982C7.1714 9.51902 7.18874 9.54009 7.20714 9.56009C7.2378 9.59342 7.26767 9.62756 7.2962 9.66356C7.31594 9.68836 7.33487 9.71396 7.35354 9.73982C7.3802 9.77822 7.40687 9.81822 7.43087 9.85876C7.4442 9.88089 7.45754 9.90249 7.47114 9.92516C7.50554 9.98846 7.53617 10.0537 7.56287 10.1206C7.57353 10.1473 7.5826 10.174 7.5922 10.2006C7.60954 10.2497 7.62447 10.2993 7.63754 10.3494C7.6442 10.3761 7.65167 10.3998 7.65727 10.4257C7.67284 10.4978 7.68413 10.5707 7.69113 10.6441C7.69273 10.6636 7.69274 10.6833 7.69407 10.7028C7.6978 10.7641 7.69887 10.8257 7.69647 10.8876Z" fill="#918DA4"/>
<path d="M15.7 5.75283H14.8613C14.7495 5.75397 14.6494 5.68353 14.6128 5.5779C14.5301 5.3302 14.43 5.0886 14.3133 4.85497C14.2638 4.75407 14.2844 4.63277 14.3645 4.5539L14.9592 3.95843C15.2713 3.64607 15.2713 3.13987 14.9592 2.8275L13.8253 1.6955C13.5129 1.38337 13.0067 1.38337 12.6944 1.6955L12.1 2.28963C12.0212 2.3697 11.9001 2.39043 11.7992 2.3411C11.5655 2.2238 11.3238 2.1232 11.076 2.04003C10.9699 2.00373 10.899 1.9036 10.9 1.7915V0.952832C10.9 0.510999 10.5418 0.152832 10.1 0.152832H8.49998C8.05815 0.152832 7.69998 0.510999 7.69998 0.952832V1.7915C7.70112 1.90333 7.63072 2.00337 7.52505 2.04003C7.27732 2.12317 7.03572 2.2237 6.80212 2.34083C6.70122 2.39053 6.57985 2.3699 6.50105 2.28963L5.90558 1.69497C5.59285 1.38373 5.08738 1.38373 4.77465 1.69497L3.64292 2.8267C3.33062 3.1391 3.33062 3.6455 3.64292 3.9579L4.51732 4.8339C4.62308 4.93637 4.79192 4.9337 4.89438 4.8279C4.99435 4.7247 4.99458 4.56083 4.89492 4.45737L4.01998 3.58163C3.91588 3.4775 3.91588 3.3087 4.01998 3.20457L5.15172 2.07283C5.25585 1.96873 5.42465 1.96873 5.52878 2.07283L6.12452 2.6675C6.36555 2.90997 6.73488 2.97057 7.04078 2.8179C7.25202 2.71213 7.47042 2.62133 7.69438 2.54617C8.01765 2.43673 8.23472 2.1328 8.23332 1.7915V0.952832C8.23332 0.805565 8.35272 0.686165 8.49998 0.686165H10.1C10.2472 0.686165 10.3666 0.805565 10.3666 0.952832V1.7915C10.3653 2.13273 10.5823 2.43657 10.9056 2.5459C11.1296 2.6211 11.3481 2.71197 11.5594 2.8179C11.8654 2.96977 12.2342 2.9091 12.4754 2.66723L13.0712 2.07283C13.1753 1.96873 13.3441 1.96873 13.4482 2.07283L14.58 3.20483C14.6839 3.30893 14.6839 3.47753 14.58 3.58163L13.9853 4.17737C13.7431 4.41853 13.6825 4.7877 13.8349 5.09363C13.9407 5.30487 14.0315 5.52327 14.1066 5.74723C14.216 6.07057 14.52 6.28763 14.8613 6.28617H15.7C15.8472 6.28617 15.9666 6.40557 15.9666 6.55283V8.15283C15.9666 8.3001 15.8472 8.4195 15.7 8.4195H14.8613C14.5201 8.41813 14.2162 8.6352 14.1069 8.95843C14.0317 9.1825 13.9408 9.401 13.8349 9.6123C13.6828 9.91823 13.7435 10.2872 13.9856 10.5283L14.5802 11.124C14.6843 11.2282 14.6843 11.397 14.5802 11.5011L13.448 12.6328C13.3439 12.7368 13.1753 12.7368 13.0712 12.6328L12.1949 11.7584C12.0924 11.6526 11.9236 11.65 11.8179 11.7524C11.712 11.8549 11.7094 12.0237 11.8118 12.1295C11.814 12.1317 11.8162 12.1339 11.8184 12.136L12.6944 13.0104C13.0067 13.3226 13.5129 13.3226 13.8253 13.0104L14.957 11.879C15.2693 11.5666 15.2693 11.0602 14.957 10.7478L14.3632 10.1528C14.2832 10.074 14.2625 9.95293 14.3117 9.85203C14.429 9.61837 14.5296 9.3767 14.6128 9.12883C14.6491 9.02277 14.7492 8.95183 14.8613 8.95283H15.7C16.1418 8.95283 16.5 8.59467 16.5 8.15283V6.55283C16.5 6.111 16.1418 5.75283 15.7 5.75283Z" fill="#918DA4"/>
<path d="M11.7512 4.90164C10.3966 3.54988 8.20337 3.54988 6.84877 4.90164C6.74647 5.00758 6.7494 5.17641 6.85534 5.27871C6.95867 5.37851 7.1225 5.37851 7.22584 5.27871C8.36367 4.12551 10.2209 4.11308 11.3741 5.25091C12.5273 6.38874 12.5397 8.24598 11.4019 9.39918C11.3927 9.40851 11.3834 9.41778 11.3741 9.42698C11.2682 9.52931 11.2652 9.69811 11.3676 9.80404C11.4699 9.90998 11.6387 9.91291 11.7446 9.81058C11.7468 9.80844 11.749 9.80624 11.7512 9.80404C13.1029 8.44944 13.1029 6.25624 11.7512 4.90164Z" fill="#918DA4"/>
</g>
<defs>
<clipPath id="clip0_219_2061">
<rect width="16" height="16" fill="white" transform="translate(0.5 0.152832)"/>
</clipPath>
</defs>
</svg>
