<svg width="17" height="17" viewBox="0 0 17 17" fill="none" xmlns="http://www.w3.org/2000/svg">
<g clip-path="url(#clip0_219_2096)">
<path d="M15.6667 8.23657H15.3333C15.2449 8.23657 15.1601 8.27169 15.0976 8.3342C15.0351 8.39672 15 8.4815 15 8.56991C15 8.65831 15.0351 8.7431 15.0976 8.80561C15.1601 8.86812 15.2449 8.90324 15.3333 8.90324H15.6667C15.7109 8.90324 15.7533 8.9208 15.7845 8.95205C15.8158 8.98331 15.8333 9.0257 15.8333 9.06991V14.7366C15.8333 14.7808 15.8158 14.8232 15.7845 14.8544C15.7533 14.8857 15.7109 14.9032 15.6667 14.9032H1.33333C1.28913 14.9032 1.24674 14.8857 1.21548 14.8544C1.18423 14.8232 1.16667 14.7808 1.16667 14.7366V9.06991C1.16667 9.0257 1.18423 8.98331 1.21548 8.95205C1.24674 8.9208 1.28913 8.90324 1.33333 8.90324H1.5C1.58841 8.90324 1.67319 8.86812 1.7357 8.80561C1.79821 8.7431 1.83333 8.65831 1.83333 8.56991C1.83333 8.4815 1.79821 8.39672 1.7357 8.3342C1.67319 8.27169 1.58841 8.23657 1.5 8.23657H1.33333C1.11232 8.23657 0.900358 8.32437 0.744078 8.48065C0.587797 8.63693 0.5 8.84889 0.5 9.06991V14.7366C0.5 14.9576 0.587797 15.1695 0.744078 15.3258C0.900358 15.4821 1.11232 15.5699 1.33333 15.5699H15.6667C15.8877 15.5699 16.0996 15.4821 16.2559 15.3258C16.4122 15.1695 16.5 14.9576 16.5 14.7366V9.06991C16.5 8.84889 16.4122 8.63693 16.2559 8.48065C16.0996 8.32437 15.8877 8.23657 15.6667 8.23657Z" fill="#918DA4"/>
<path d="M2.50013 11.9032C2.50013 11.9916 2.53525 12.0764 2.59776 12.1389C2.66027 12.2014 2.74506 12.2365 2.83346 12.2365H14.1668C14.2552 12.2365 14.34 12.2014 14.4025 12.1389C14.465 12.0764 14.5001 11.9916 14.5001 11.9032C14.5001 11.8148 14.465 11.73 14.4025 11.6675C14.34 11.605 14.2552 11.5699 14.1668 11.5699H10.9018C11.4242 11.0871 11.8369 10.4977 12.1118 9.84154C12.8673 9.52325 13.5329 9.02408 14.0501 8.38797C14.5673 7.75187 14.9201 6.99836 15.0775 6.1938C15.2349 5.38924 15.1921 4.55832 14.9528 3.77422C14.7135 2.99011 14.285 2.27688 13.7052 1.69733C13.1253 1.11778 12.4119 0.689705 11.6277 0.450793C10.8434 0.211881 10.0125 0.169467 9.20802 0.327287C8.40354 0.485107 7.65021 0.838318 7.01438 1.35581C6.37854 1.87331 5.8797 2.53921 5.56179 3.29487C4.79116 3.61875 4.11402 4.13068 3.59231 4.78382C3.07061 5.43697 2.72098 6.2105 2.57542 7.03366C2.42985 7.85681 2.49299 8.70333 2.75906 9.49579C3.02513 10.2882 3.48563 11.0013 4.09846 11.5699H2.83346C2.74506 11.5699 2.66027 11.605 2.59776 11.6675C2.53525 11.73 2.50013 11.8148 2.50013 11.9032ZM10.1668 0.903208C11.1155 0.903138 12.038 1.21439 12.7927 1.7892C13.5474 2.364 14.0926 3.1706 14.3447 4.08518C14.5968 4.99976 14.5417 5.97179 14.188 6.85208C13.8344 7.73236 13.2016 8.47226 12.3868 8.95821C12.563 8.14116 12.5316 7.29297 12.2953 6.4912C12.0591 5.68943 11.6257 4.95967 11.0347 4.36865C10.4437 3.77762 9.7139 3.34419 8.91214 3.10799C8.11037 2.87178 7.26218 2.84034 6.44513 3.01654C6.82708 2.37012 7.37158 1.83494 8.02448 1.46418C8.67739 1.09343 9.41597 0.900032 10.1668 0.903208ZM3.16679 7.90321C3.16668 7.14953 3.36313 6.40886 3.73676 5.75431C4.11039 5.09977 4.64827 4.55399 5.29731 4.17087C5.94634 3.78774 6.68407 3.58052 7.43767 3.56965C8.19126 3.55879 8.93466 3.74466 9.59447 4.10892C10.2543 4.47318 10.8077 5.00323 11.2 5.64673C11.5923 6.29023 11.8101 7.02493 11.8317 7.7783C11.8533 8.53167 11.678 9.27764 11.3232 9.94257C10.9684 10.6075 10.4463 11.1684 9.80846 11.5699H5.19179C4.57023 11.1814 4.05805 10.6408 3.7037 9.9992C3.34935 9.35758 3.16456 8.63617 3.16679 7.90321Z" fill="#918DA4"/>
<path d="M9.7349 7.66822L7.7349 5.66822C7.67245 5.60614 7.58796 5.57129 7.4999 5.57129C7.41184 5.57129 7.32735 5.60614 7.2649 5.66822L5.2649 7.66822C5.20282 7.73067 5.16797 7.81516 5.16797 7.90322C5.16797 7.99128 5.20282 8.07577 5.2649 8.13822L7.2649 10.1382C7.32735 10.2003 7.41184 10.2352 7.4999 10.2352C7.58796 10.2352 7.67245 10.2003 7.7349 10.1382L9.7349 8.13822C9.79698 8.07577 9.83183 7.99128 9.83183 7.90322C9.83183 7.81516 9.79698 7.73067 9.7349 7.66822ZM7.4999 9.43155L5.97157 7.90322L7.4999 6.37489L9.02823 7.90322L7.4999 9.43155Z" fill="#918DA4"/>
</g>
<defs>
<clipPath id="clip0_219_2096">
<rect width="16" height="16" fill="white" transform="translate(0.5 0.152832)"/>
</clipPath>
</defs>
</svg>
