<svg width="17" height="17" viewBox="0 0 17 17" fill="none" xmlns="http://www.w3.org/2000/svg">
<g clip-path="url(#clip0_219_2031)">
<path d="M11.041 8.88303L12.4975 9.17208C12.5487 9.99056 13.2537 10.6125 14.0721 10.5614C14.8906 10.5102 15.5126 9.80519 15.4614 8.98672C15.4102 8.16824 14.7052 7.54627 13.8868 7.59744C13.3562 7.63063 12.8838 7.94494 12.6483 8.42159L11.141 8.12246C11.1247 7.55155 10.9037 7.00552 10.5185 6.5838L12.5503 3.71363C13.4912 4.12168 14.5847 3.68975 14.9927 2.74894C15.4007 1.80814 14.9688 0.714619 14.028 0.306606C13.0872 -0.101406 11.9937 0.33049 11.5857 1.27129C11.2929 1.94635 11.4263 2.73057 11.9259 3.27079L9.9182 6.10697C8.95765 5.56791 7.75294 5.75649 7.00309 6.56329L4.37217 4.52012C4.71956 3.77537 4.3974 2.89006 3.65268 2.54268C2.90792 2.19529 2.02262 2.51745 1.67523 3.26217C1.32785 4.00693 1.65001 4.89223 2.39473 5.23962C2.87788 5.46498 3.44469 5.41461 3.88057 5.10761L6.57586 7.20072C6.1429 8.14639 6.37216 9.26356 7.14264 9.9622L5.52812 12.2455C4.57499 11.7141 3.37155 12.056 2.84017 13.0091C2.3088 13.9623 2.65067 15.1657 3.6038 15.6971C4.55693 16.2284 5.76038 15.8866 6.29175 14.9334C6.68135 14.2346 6.61108 13.3698 6.11373 12.7431L7.7844 10.3802C8.36653 10.6384 9.02777 10.6529 9.62069 10.4205L11.6179 13.3709C11.0071 14.0665 11.0759 15.1255 11.7715 15.7362C12.4671 16.3469 13.5261 16.2781 14.1368 15.5826C14.7476 14.8869 14.6788 13.8279 13.9832 13.2172C13.5049 12.7973 12.8301 12.6845 12.2412 12.9261L10.2808 10.0301C10.6408 9.73017 10.9051 9.33142 11.041 8.88303ZM13.9787 8.36004C14.3758 8.36004 14.6977 8.68193 14.6977 9.079C14.6977 9.47606 14.3758 9.79796 13.9787 9.79796C13.5817 9.79796 13.2598 9.47606 13.2598 9.079C13.2601 8.68205 13.5818 8.36034 13.9787 8.36004ZM13.2842 0.927352C13.8841 0.927391 14.3704 1.41375 14.3704 2.01368C14.3704 2.6136 13.884 3.09996 13.2841 3.09993C12.6842 3.09989 12.1978 2.61356 12.1978 2.01364C12.1986 1.41394 12.6845 0.928003 13.2842 0.927352ZM3.02638 4.61336C2.62951 4.6129 2.30788 4.29128 2.30742 3.8944C2.30742 3.49734 2.62932 3.17544 3.02638 3.17544C3.42345 3.17544 3.74534 3.49734 3.74534 3.8944C3.74534 4.29147 3.42349 4.61336 3.02638 4.61336ZM4.57094 15.1719C3.90541 15.1718 3.36592 14.6323 3.36596 13.9668C3.366 13.3013 3.90549 12.7618 4.57101 12.7618C5.2365 12.7619 5.77599 13.3014 5.77599 13.9668C5.77526 14.6321 5.23616 15.1711 4.57094 15.1719ZM12.8771 13.5663C13.3813 13.5668 13.7899 13.9754 13.7905 14.4797C13.7905 14.9841 13.3815 15.3931 12.8771 15.3931C12.3726 15.3931 11.9637 14.9841 11.9637 14.4797C11.9637 13.9752 12.3726 13.5663 12.8771 13.5663ZM8.75093 9.81955C7.85318 9.81855 7.12565 9.09102 7.12465 8.19327C7.12465 7.29511 7.85276 6.567 8.75093 6.567C9.64909 6.567 10.3772 7.29511 10.3772 8.19327C10.3772 9.09144 9.64909 9.81955 8.75093 9.81955Z" fill="#918DA4"/>
</g>
<defs>
<clipPath id="clip0_219_2031">
<rect width="16" height="16" fill="white" transform="translate(0.5 0.152832)"/>
</clipPath>
</defs>
</svg>
