<svg width="17" height="17" viewBox="0 0 17 17" fill="none" xmlns="http://www.w3.org/2000/svg">
<g clip-path="url(#clip0_219_2078)">
<path d="M16.3967 3.99366L12.7581 1.33128C12.6981 1.28713 12.6216 1.27201 12.5493 1.29002L8.17831 2.39874C8.04451 2.43283 7.9637 2.56893 7.99779 2.7027C8.01208 2.75879 8.04541 2.80819 8.09207 2.84244L9.24949 3.6874L8.99949 4.95482C8.86325 5.66228 9.99944 6.78224 11.5306 7.0797C11.7992 7.13155 12.072 7.15751 12.3456 7.15721C12.7649 7.15983 13.1819 7.09483 13.5805 6.96473C14.193 6.761 14.6017 6.42099 14.6729 6.05727L14.9229 4.79358L16.3116 4.44235C16.4454 4.40825 16.5262 4.27215 16.4921 4.13838C16.4778 4.0823 16.4445 4.03289 16.3979 3.99865L16.3967 3.99366ZM14.1855 5.96106C14.1567 6.1073 13.8855 6.33603 13.4243 6.48979C12.8419 6.6721 12.2231 6.70563 11.6244 6.58728C10.2182 6.31353 9.43324 5.36234 9.49949 5.04987L9.70075 4.01368L11.7306 5.5036C11.7734 5.5351 11.825 5.55217 11.8781 5.55235C11.8993 5.55249 11.9203 5.54954 11.9406 5.5436L14.3855 4.9249L14.1855 5.96106ZM11.9356 5.0311L8.81704 2.75121L12.5581 1.80375L15.6729 4.08239L11.9356 5.0311Z" fill="#918DA4"/>
<path d="M6.61206 7.20471C6.53557 7.24886 6.48805 7.33012 6.48706 7.41846V11.8782C6.48805 11.9665 6.53557 12.0478 6.61206 12.092C6.64965 12.1152 6.69288 12.1277 6.73706 12.1282C6.77745 12.1286 6.81734 12.1191 6.85329 12.1007L11.1156 9.86956C11.2378 9.80527 11.2847 9.65411 11.2204 9.53194C11.1969 9.48719 11.1603 9.45065 11.1156 9.42711L6.85705 7.19596C6.77948 7.1559 6.68661 7.15921 6.61206 7.20471ZM6.98706 7.82968L10.4606 9.64832L6.99082 11.4657L6.98706 7.82968Z" fill="#918DA4"/>
<path d="M15.7492 13.5232H14.4655C14.4878 13.4532 14.4991 13.3803 14.4993 13.3069V7.52347C14.4993 7.38541 14.3874 7.27347 14.2493 7.27347C14.1112 7.27347 13.9993 7.38541 13.9993 7.52347V13.3069C13.9972 13.4284 13.8971 13.5252 13.7756 13.5231C13.7756 13.5231 13.7756 13.5231 13.7755 13.5231H2.72363C2.60215 13.5252 2.50197 13.4285 2.49988 13.307C2.49988 13.3069 2.49988 13.3069 2.49988 13.3069V5.73979C2.50194 5.61831 2.60209 5.52151 2.72357 5.52356H2.72363H8.24958C8.38765 5.52356 8.49958 5.41163 8.49958 5.27356C8.49958 5.1355 8.38765 5.02356 8.24958 5.02356H2.72363C2.32628 5.02219 2.00266 5.34245 1.99991 5.73976V13.3069C2.00006 13.3803 2.01143 13.4532 2.03365 13.5231H0.75C0.611933 13.5231 0.5 13.635 0.5 13.7731V13.8356C0.5 14.3981 0.942482 15.0231 1.53619 15.0231H14.963C15.5567 15.0231 15.9992 14.3981 15.9992 13.8356V13.7731C15.9992 13.6351 15.8873 13.5232 15.7492 13.5232ZM14.963 14.5231H1.53619C1.31996 14.5231 1.09997 14.2931 1.02622 14.0231H15.473C15.3992 14.2931 15.1792 14.5231 14.963 14.5231Z" fill="#918DA4"/>
</g>
<defs>
<clipPath id="clip0_219_2078">
<rect width="16" height="16" fill="white" transform="translate(0.5 0.152832)"/>
</clipPath>
</defs>
</svg>
