<svg width="17" height="17" viewBox="0 0 17 17" fill="none" xmlns="http://www.w3.org/2000/svg">
<path d="M2.25 15.2757H10.25C10.6011 15.3343 11.6379 14.7947 11.2105 14.4024C11.0981 14.3221 10.942 14.3482 10.8617 14.4603C10.7202 14.6578 10.4916 14.7757 10.25 14.7757H2.25C1.83643 14.7757 1.5 14.4393 1.5 14.0257V3.2757C1.5 2.86212 1.83643 2.5257 2.25 2.5257H10.25C10.6636 2.5257 11 2.86212 11 3.2757V6.39569C11.0048 6.72499 11.4953 6.72331 11.5 6.39568V3.2757C11.5 2.58649 10.9392 2.0257 10.25 2.0257H2.54606C2.6496 1.73532 2.92451 1.5257 3.25 1.5257H11.25C11.6636 1.5257 12 1.86212 12 2.2757V6.2757C12 6.41376 12.1119 6.5257 12.25 6.5257C12.3881 6.5257 12.5 6.41376 12.5 6.2757V2.2757C12.5 1.58649 11.9392 1.0257 11.25 1.0257H3.25C2.63854 1.0257 2.13031 1.46776 2.02295 2.04865C1.44206 2.15601 1 2.66423 1 3.2757V14.0257C1 14.7149 1.56079 15.2757 2.25 15.2757Z" fill="#918DA4"/>
<path d="M5.09386 4.08051C5.09387 4.08051 4.73302 4.36919 4.73302 4.36919C4.66075 4.03059 4.35985 3.7757 4 3.7757H3C2.58643 3.7757 2.25 4.11212 2.25 4.5257V5.5257C2.25 5.93927 2.58643 6.2757 3 6.2757H4C4.41358 6.2757 4.75 5.93927 4.75 5.5257V4.99579L5.40613 4.47089C5.66069 4.26569 5.34982 3.87744 5.09386 4.08051ZM4.25 4.75559L4.01856 4.94074L3.67676 4.59894C3.44482 4.3689 3.09291 4.7202 3.32326 4.95245C3.32324 4.95245 3.82324 5.45245 3.82324 5.45245C3.96282 5.58905 4.12934 5.5136 4.25 5.39578V5.5257C4.25 5.66351 4.13782 5.7757 4 5.7757H3C2.86218 5.7757 2.75 5.66351 2.75 5.5257V4.5257C2.75 4.38788 2.86218 4.2757 3 4.2757H4C4.13782 4.2757 4.25 4.38788 4.25 4.5257V4.75559Z" fill="#918DA4"/>
<path d="M8.00006 5.0257H5.75006C5.42198 5.03111 5.42108 5.5201 5.75007 5.5257C5.75006 5.5257 8.00006 5.5257 8.00006 5.5257C8.32799 5.52031 8.32918 5.03131 8.00006 5.0257Z" fill="#918DA4"/>
<path d="M4.75 7.99585L5.40613 7.47089C5.66069 7.26569 5.34982 6.87735 5.09386 7.08051C5.09387 7.08051 4.73302 7.36919 4.73302 7.36919C4.66075 7.03059 4.35985 6.7757 4 6.7757H3C2.58643 6.7757 2.25 7.11212 2.25 7.5257V8.5257C2.25 8.93927 2.58643 9.2757 3 9.2757H4C4.41358 9.2757 4.75 8.93927 4.75 8.5257V7.99585ZM4.25 7.75558L4.01856 7.94073L3.67676 7.59894C3.44482 7.36889 3.09291 7.7202 3.32326 7.95245C3.32324 7.95245 3.82324 8.45245 3.82324 8.45245C3.96272 8.58899 4.12941 8.51368 4.25 8.3959V8.52569C4.25 8.66363 4.13782 8.77569 4 8.77569H3C2.86218 8.77569 2.75 8.66363 2.75 8.52569V7.52569C2.75 7.38788 2.86218 7.27569 3 7.27569H4C4.13782 7.27569 4.25 7.38788 4.25 7.52569V7.75558Z" fill="#918DA4"/>
<path d="M13.8438 9.33036L11.5185 11.1907L10.6767 10.3489C10.4455 10.1189 10.0924 10.4702 10.3232 10.7024C10.3232 10.7024 11.3232 11.7024 11.3232 11.7024C11.4133 11.7927 11.557 11.8003 11.6561 11.721L14.1561 9.72098C14.4094 9.51664 14.1011 9.12633 13.8438 9.33036Z" fill="#918DA4"/>
<path d="M12.25 6.7757C10.1823 6.7757 8.5 8.45783 8.5 10.5257C8.7059 15.5006 15.7949 15.4991 16 10.5257C16 8.45783 14.3177 6.7757 12.25 6.7757ZM12.25 13.7757C10.4579 13.7757 9 12.3177 9 10.5257C9.17854 6.21413 15.3221 6.21538 15.5 10.5257C15.5 12.3177 14.0421 13.7757 12.25 13.7757Z" fill="#918DA4"/>
<path d="M8.00006 8.0257H5.75006C5.42213 8.03098 5.42093 8.52017 5.75007 8.5257C5.75006 8.5257 8.00006 8.5257 8.00006 8.5257C8.328 8.5204 8.32919 8.03122 8.00006 8.0257Z" fill="#918DA4"/>
<path d="M4 9.7757H3C2.58643 9.7757 2.25 10.1121 2.25 10.5257V11.5257C2.25 11.9393 2.58643 12.2757 3 12.2757H4C4.41358 12.2757 4.75 11.9393 4.75 11.5257V10.5257C4.75 10.1121 4.41358 9.7757 4 9.7757ZM4.25 11.5257C4.25 11.6636 4.13782 11.7757 4 11.7757H3C2.86218 11.7757 2.75 11.6636 2.75 11.5257V10.5257C2.75 10.3878 2.86218 10.2757 3 10.2757C4.49957 10.301 4.22435 10.0273 4.25 11.5257Z" fill="#918DA4"/>
<path d="M5.75006 11.0257C5.42213 11.031 5.42093 11.5202 5.75007 11.5257H8.00006C8.328 11.5204 8.32919 11.0312 8.00006 11.0257H5.75006Z" fill="#918DA4"/>
</svg>
